<?xml version="1.0" encoding="utf-8"?>
<svg xmlns="http://www.w3.org/2000/svg" xmlns:xlink="http://www.w3.org/1999/xlink" width="500" height="500" viewBox="0 0 2000 2000">
<defs>
  <clipPath id="clip5100">
    <rect x="0" y="0" width="2000" height="2000"/>
  </clipPath>
</defs>
<path clip-path="url(#clip5100)" d="
M0 2000 L2000 2000 L2000 0 L0 0  Z
  " fill="#ffffff" fill-rule="evenodd" fill-opacity="1"/>
<defs>
  <clipPath id="clip5101">
    <rect x="400" y="200" width="1401" height="1401"/>
  </clipPath>
</defs>
<path clip-path="url(#clip5100)" d="
M245.247 1775.51 L1952.76 1775.51 L1952.76 151.017 L245.247 151.017  Z
  " fill="#ffffff" fill-rule="evenodd" fill-opacity="1"/>
<defs>
  <clipPath id="clip5102">
    <rect x="245" y="151" width="1709" height="1625"/>
  </clipPath>
</defs>
<polyline clip-path="url(#clip5102)" style="stroke:#000000; stroke-width:2; stroke-opacity:0.1; fill:none" points="
  245.247,1775.51 245.247,151.017 
  "/>
<polyline clip-path="url(#clip5102)" style="stroke:#000000; stroke-width:2; stroke-opacity:0.1; fill:none" points="
  410.304,1775.51 410.304,151.017 
  "/>
<polyline clip-path="url(#clip5102)" style="stroke:#000000; stroke-width:2; stroke-opacity:0.1; fill:none" points="
  575.36,1775.51 575.36,151.017 
  "/>
<polyline clip-path="url(#clip5102)" style="stroke:#000000; stroke-width:2; stroke-opacity:0.1; fill:none" points="
  740.416,1775.51 740.416,151.017 
  "/>
<polyline clip-path="url(#clip5102)" style="stroke:#000000; stroke-width:2; stroke-opacity:0.1; fill:none" points="
  905.473,1775.51 905.473,151.017 
  "/>
<polyline clip-path="url(#clip5102)" style="stroke:#000000; stroke-width:2; stroke-opacity:0.1; fill:none" points="
  1070.53,1775.51 1070.53,151.017 
  "/>
<polyline clip-path="url(#clip5102)" style="stroke:#000000; stroke-width:2; stroke-opacity:0.1; fill:none" points="
  1235.59,1775.51 1235.59,151.017 
  "/>
<polyline clip-path="url(#clip5102)" style="stroke:#000000; stroke-width:2; stroke-opacity:0.1; fill:none" points="
  1400.64,1775.51 1400.64,151.017 
  "/>
<polyline clip-path="url(#clip5102)" style="stroke:#000000; stroke-width:2; stroke-opacity:0.1; fill:none" points="
  1565.7,1775.51 1565.7,151.017 
  "/>
<polyline clip-path="url(#clip5102)" style="stroke:#000000; stroke-width:2; stroke-opacity:0.1; fill:none" points="
  1730.76,1775.51 1730.76,151.017 
  "/>
<polyline clip-path="url(#clip5102)" style="stroke:#000000; stroke-width:2; stroke-opacity:0.1; fill:none" points="
  1895.81,1775.51 1895.81,151.017 
  "/>
<polyline clip-path="url(#clip5102)" style="stroke:#000000; stroke-width:2; stroke-opacity:0.1; fill:none" points="
  245.247,1775.51 1952.76,1775.51 
  "/>
<polyline clip-path="url(#clip5102)" style="stroke:#000000; stroke-width:2; stroke-opacity:0.1; fill:none" points="
  245.247,1613.06 1952.76,1613.06 
  "/>
<polyline clip-path="url(#clip5102)" style="stroke:#000000; stroke-width:2; stroke-opacity:0.1; fill:none" points="
  245.247,1450.61 1952.76,1450.61 
  "/>
<polyline clip-path="url(#clip5102)" style="stroke:#000000; stroke-width:2; stroke-opacity:0.1; fill:none" points="
  245.247,1288.16 1952.76,1288.16 
  "/>
<polyline clip-path="url(#clip5102)" style="stroke:#000000; stroke-width:2; stroke-opacity:0.1; fill:none" points="
  245.247,1125.71 1952.76,1125.71 
  "/>
<polyline clip-path="url(#clip5102)" style="stroke:#000000; stroke-width:2; stroke-opacity:0.1; fill:none" points="
  245.247,963.264 1952.76,963.264 
  "/>
<polyline clip-path="url(#clip5102)" style="stroke:#000000; stroke-width:2; stroke-opacity:0.1; fill:none" points="
  245.247,800.814 1952.76,800.814 
  "/>
<polyline clip-path="url(#clip5102)" style="stroke:#000000; stroke-width:2; stroke-opacity:0.1; fill:none" points="
  245.247,638.365 1952.76,638.365 
  "/>
<polyline clip-path="url(#clip5102)" style="stroke:#000000; stroke-width:2; stroke-opacity:0.1; fill:none" points="
  245.247,475.915 1952.76,475.915 
  "/>
<polyline clip-path="url(#clip5102)" style="stroke:#000000; stroke-width:2; stroke-opacity:0.1; fill:none" points="
  245.247,313.466 1952.76,313.466 
  "/>
<polyline clip-path="url(#clip5102)" style="stroke:#000000; stroke-width:2; stroke-opacity:0.1; fill:none" points="
  245.247,151.017 1952.76,151.017 
  "/>
<polyline clip-path="url(#clip5100)" style="stroke:#000000; stroke-width:4; stroke-opacity:1; fill:none" points="
  245.247,1775.51 1952.76,1775.51 
  "/>
<polyline clip-path="url(#clip5100)" style="stroke:#000000; stroke-width:4; stroke-opacity:1; fill:none" points="
  245.247,1775.51 245.247,151.017 
  "/>
<polyline clip-path="url(#clip5100)" style="stroke:#000000; stroke-width:4; stroke-opacity:1; fill:none" points="
  245.247,1775.51 245.247,1756.02 
  "/>
<polyline clip-path="url(#clip5100)" style="stroke:#000000; stroke-width:4; stroke-opacity:1; fill:none" points="
  410.304,1775.51 410.304,1756.02 
  "/>
<polyline clip-path="url(#clip5100)" style="stroke:#000000; stroke-width:4; stroke-opacity:1; fill:none" points="
  575.36,1775.51 575.36,1756.02 
  "/>
<polyline clip-path="url(#clip5100)" style="stroke:#000000; stroke-width:4; stroke-opacity:1; fill:none" points="
  740.416,1775.51 740.416,1756.02 
  "/>
<polyline clip-path="url(#clip5100)" style="stroke:#000000; stroke-width:4; stroke-opacity:1; fill:none" points="
  905.473,1775.51 905.473,1756.02 
  "/>
<polyline clip-path="url(#clip5100)" style="stroke:#000000; stroke-width:4; stroke-opacity:1; fill:none" points="
  1070.53,1775.51 1070.53,1756.02 
  "/>
<polyline clip-path="url(#clip5100)" style="stroke:#000000; stroke-width:4; stroke-opacity:1; fill:none" points="
  1235.59,1775.51 1235.59,1756.02 
  "/>
<polyline clip-path="url(#clip5100)" style="stroke:#000000; stroke-width:4; stroke-opacity:1; fill:none" points="
  1400.64,1775.51 1400.64,1756.02 
  "/>
<polyline clip-path="url(#clip5100)" style="stroke:#000000; stroke-width:4; stroke-opacity:1; fill:none" points="
  1565.7,1775.51 1565.7,1756.02 
  "/>
<polyline clip-path="url(#clip5100)" style="stroke:#000000; stroke-width:4; stroke-opacity:1; fill:none" points="
  1730.76,1775.51 1730.76,1756.02 
  "/>
<polyline clip-path="url(#clip5100)" style="stroke:#000000; stroke-width:4; stroke-opacity:1; fill:none" points="
  1895.81,1775.51 1895.81,1756.02 
  "/>
<polyline clip-path="url(#clip5100)" style="stroke:#000000; stroke-width:4; stroke-opacity:1; fill:none" points="
  245.247,1775.51 265.737,1775.51 
  "/>
<polyline clip-path="url(#clip5100)" style="stroke:#000000; stroke-width:4; stroke-opacity:1; fill:none" points="
  245.247,1613.06 265.737,1613.06 
  "/>
<polyline clip-path="url(#clip5100)" style="stroke:#000000; stroke-width:4; stroke-opacity:1; fill:none" points="
  245.247,1450.61 265.737,1450.61 
  "/>
<polyline clip-path="url(#clip5100)" style="stroke:#000000; stroke-width:4; stroke-opacity:1; fill:none" points="
  245.247,1288.16 265.737,1288.16 
  "/>
<polyline clip-path="url(#clip5100)" style="stroke:#000000; stroke-width:4; stroke-opacity:1; fill:none" points="
  245.247,1125.71 265.737,1125.71 
  "/>
<polyline clip-path="url(#clip5100)" style="stroke:#000000; stroke-width:4; stroke-opacity:1; fill:none" points="
  245.247,963.264 265.737,963.264 
  "/>
<polyline clip-path="url(#clip5100)" style="stroke:#000000; stroke-width:4; stroke-opacity:1; fill:none" points="
  245.247,800.814 265.737,800.814 
  "/>
<polyline clip-path="url(#clip5100)" style="stroke:#000000; stroke-width:4; stroke-opacity:1; fill:none" points="
  245.247,638.365 265.737,638.365 
  "/>
<polyline clip-path="url(#clip5100)" style="stroke:#000000; stroke-width:4; stroke-opacity:1; fill:none" points="
  245.247,475.915 265.737,475.915 
  "/>
<polyline clip-path="url(#clip5100)" style="stroke:#000000; stroke-width:4; stroke-opacity:1; fill:none" points="
  245.247,313.466 265.737,313.466 
  "/>
<polyline clip-path="url(#clip5100)" style="stroke:#000000; stroke-width:4; stroke-opacity:1; fill:none" points="
  245.247,151.017 265.737,151.017 
  "/>
<g clip-path="url(#clip5100)">
<text style="fill:#000000; fill-opacity:1; font-family:Arial,Helvetica Neue,Helvetica,sans-serif; font-size:59px; text-anchor:middle;" transform="rotate(0, 245.247, 1837.11)" x="245.247" y="1837.11">0</text>
</g>
<g clip-path="url(#clip5100)">
<text style="fill:#000000; fill-opacity:1; font-family:Arial,Helvetica Neue,Helvetica,sans-serif; font-size:59px; text-anchor:middle;" transform="rotate(0, 410.304, 1837.11)" x="410.304" y="1837.11">200</text>
</g>
<g clip-path="url(#clip5100)">
<text style="fill:#000000; fill-opacity:1; font-family:Arial,Helvetica Neue,Helvetica,sans-serif; font-size:59px; text-anchor:middle;" transform="rotate(0, 575.36, 1837.11)" x="575.36" y="1837.11">400</text>
</g>
<g clip-path="url(#clip5100)">
<text style="fill:#000000; fill-opacity:1; font-family:Arial,Helvetica Neue,Helvetica,sans-serif; font-size:59px; text-anchor:middle;" transform="rotate(0, 740.416, 1837.11)" x="740.416" y="1837.11">600</text>
</g>
<g clip-path="url(#clip5100)">
<text style="fill:#000000; fill-opacity:1; font-family:Arial,Helvetica Neue,Helvetica,sans-serif; font-size:59px; text-anchor:middle;" transform="rotate(0, 905.473, 1837.11)" x="905.473" y="1837.11">800</text>
</g>
<g clip-path="url(#clip5100)">
<text style="fill:#000000; fill-opacity:1; font-family:Arial,Helvetica Neue,Helvetica,sans-serif; font-size:59px; text-anchor:middle;" transform="rotate(0, 1070.53, 1837.11)" x="1070.53" y="1837.11">1000</text>
</g>
<g clip-path="url(#clip5100)">
<text style="fill:#000000; fill-opacity:1; font-family:Arial,Helvetica Neue,Helvetica,sans-serif; font-size:59px; text-anchor:middle;" transform="rotate(0, 1235.59, 1837.11)" x="1235.59" y="1837.11">1200</text>
</g>
<g clip-path="url(#clip5100)">
<text style="fill:#000000; fill-opacity:1; font-family:Arial,Helvetica Neue,Helvetica,sans-serif; font-size:59px; text-anchor:middle;" transform="rotate(0, 1400.64, 1837.11)" x="1400.64" y="1837.11">1400</text>
</g>
<g clip-path="url(#clip5100)">
<text style="fill:#000000; fill-opacity:1; font-family:Arial,Helvetica Neue,Helvetica,sans-serif; font-size:59px; text-anchor:middle;" transform="rotate(0, 1565.7, 1837.11)" x="1565.7" y="1837.11">1600</text>
</g>
<g clip-path="url(#clip5100)">
<text style="fill:#000000; fill-opacity:1; font-family:Arial,Helvetica Neue,Helvetica,sans-serif; font-size:59px; text-anchor:middle;" transform="rotate(0, 1730.76, 1837.11)" x="1730.76" y="1837.11">1800</text>
</g>
<g clip-path="url(#clip5100)">
<text style="fill:#000000; fill-opacity:1; font-family:Arial,Helvetica Neue,Helvetica,sans-serif; font-size:59px; text-anchor:middle;" transform="rotate(0, 1895.81, 1837.11)" x="1895.81" y="1837.11">2000</text>
</g>
<g clip-path="url(#clip5100)">
<text style="fill:#000000; fill-opacity:1; font-family:Arial,Helvetica Neue,Helvetica,sans-serif; font-size:59px; text-anchor:end;" transform="rotate(0, 225.247, 1797.01)" x="225.247" y="1797.01">0.0</text>
</g>
<g clip-path="url(#clip5100)">
<text style="fill:#000000; fill-opacity:1; font-family:Arial,Helvetica Neue,Helvetica,sans-serif; font-size:59px; text-anchor:end;" transform="rotate(0, 225.247, 1634.56)" x="225.247" y="1634.56">0.1</text>
</g>
<g clip-path="url(#clip5100)">
<text style="fill:#000000; fill-opacity:1; font-family:Arial,Helvetica Neue,Helvetica,sans-serif; font-size:59px; text-anchor:end;" transform="rotate(0, 225.247, 1472.11)" x="225.247" y="1472.11">0.2</text>
</g>
<g clip-path="url(#clip5100)">
<text style="fill:#000000; fill-opacity:1; font-family:Arial,Helvetica Neue,Helvetica,sans-serif; font-size:59px; text-anchor:end;" transform="rotate(0, 225.247, 1309.66)" x="225.247" y="1309.66">0.3</text>
</g>
<g clip-path="url(#clip5100)">
<text style="fill:#000000; fill-opacity:1; font-family:Arial,Helvetica Neue,Helvetica,sans-serif; font-size:59px; text-anchor:end;" transform="rotate(0, 225.247, 1147.21)" x="225.247" y="1147.21">0.4</text>
</g>
<g clip-path="url(#clip5100)">
<text style="fill:#000000; fill-opacity:1; font-family:Arial,Helvetica Neue,Helvetica,sans-serif; font-size:59px; text-anchor:end;" transform="rotate(0, 225.247, 984.764)" x="225.247" y="984.764">0.5</text>
</g>
<g clip-path="url(#clip5100)">
<text style="fill:#000000; fill-opacity:1; font-family:Arial,Helvetica Neue,Helvetica,sans-serif; font-size:59px; text-anchor:end;" transform="rotate(0, 225.247, 822.314)" x="225.247" y="822.314">0.6</text>
</g>
<g clip-path="url(#clip5100)">
<text style="fill:#000000; fill-opacity:1; font-family:Arial,Helvetica Neue,Helvetica,sans-serif; font-size:59px; text-anchor:end;" transform="rotate(0, 225.247, 659.865)" x="225.247" y="659.865">0.7</text>
</g>
<g clip-path="url(#clip5100)">
<text style="fill:#000000; fill-opacity:1; font-family:Arial,Helvetica Neue,Helvetica,sans-serif; font-size:59px; text-anchor:end;" transform="rotate(0, 225.247, 497.415)" x="225.247" y="497.415">0.8</text>
</g>
<g clip-path="url(#clip5100)">
<text style="fill:#000000; fill-opacity:1; font-family:Arial,Helvetica Neue,Helvetica,sans-serif; font-size:59px; text-anchor:end;" transform="rotate(0, 225.247, 334.966)" x="225.247" y="334.966">0.9</text>
</g>
<g clip-path="url(#clip5100)">
<text style="fill:#000000; fill-opacity:1; font-family:Arial,Helvetica Neue,Helvetica,sans-serif; font-size:59px; text-anchor:end;" transform="rotate(0, 225.247, 172.517)" x="225.247" y="172.517">1.0</text>
</g>
<g clip-path="url(#clip5100)">
<text style="fill:#000000; fill-opacity:1; font-family:Arial,Helvetica Neue,Helvetica,sans-serif; font-size:84px; text-anchor:middle;" transform="rotate(0, 1099, 73.2)" x="1099" y="73.2">LPChoose</text>
</g>
<g clip-path="url(#clip5100)">
<text style="fill:#000000; fill-opacity:1; font-family:Arial,Helvetica Neue,Helvetica,sans-serif; font-size:59px; text-anchor:middle;" transform="rotate(0, 1099, 1912.66)" x="1099" y="1912.66">number of steps</text>
</g>
<g clip-path="url(#clip5100)">
<text style="fill:#000000; fill-opacity:1; font-family:Arial,Helvetica Neue,Helvetica,sans-serif; font-size:59px; text-anchor:middle;" transform="rotate(-90, 110.34, 963.264)" x="110.34" y="963.264">coverage</text>
</g>
<polyline clip-path="url(#clip5102)" style="stroke:#009af9; stroke-width:4; stroke-opacity:1; fill:none" points="
  245.247,1775.51 246.072,1513.73 246.898,1330.79 247.723,1164.5 248.548,1042.67 249.374,962.249 250.199,875.056 251.024,799.341 251.849,736.86 252.675,681.931 
  253.5,643.122 254.325,608.119 255.151,579.713 255.976,552.835 256.801,531.746 257.626,510.416 258.452,491.315 259.277,474.818 260.102,460.659 260.927,447.051 
  261.753,434.539 262.578,422.279 263.403,412.017 264.229,401.432 265.054,391.645 265.879,382.798 266.704,374.856 267.53,367.707 268.355,361.52 269.18,355.641 
  270.006,349.82 270.831,344.424 271.656,339.207 272.481,334.192 273.307,329.623 274.132,325.464 274.957,321.349 275.783,317.529 276.608,313.946 277.433,311.479 
  278.258,308.206 279.084,305.235 279.909,302.294 280.734,299.455 281.56,296.77 282.385,294.424 283.21,291.906 284.035,289.458 284.861,287.171 285.686,285.135 
  286.511,283.024 287.337,280.944 288.162,278.902 288.987,276.974 289.812,275.087 290.638,273.327 291.463,271.585 292.288,269.937 293.113,268.35 293.939,266.912 
  294.764,265.496 295.589,264.093 296.415,262.698 297.24,261.388 298.065,260.137 298.89,258.868 299.716,257.683 300.541,256.473 301.366,255.306 302.192,254.175 
  303.017,253.067 303.842,251.99 304.667,250.953 305.493,249.926 306.318,248.927 307.143,247.949 307.969,246.997 308.794,246.066 309.619,245.153 310.444,244.255 
  311.27,243.575 312.095,242.751 312.92,241.945 313.746,241.144 314.571,240.365 315.396,239.608 316.221,238.897 317.047,238.209 317.872,237.537 318.697,236.885 
  319.523,236.249 320.348,235.624 321.173,235.005 321.998,234.395 322.824,233.931 323.649,233.351 324.474,232.777 325.299,232.264 326.125,231.8 326.95,231.252 
  327.775,230.709 328.601,230.181 329.426,229.662 330.251,229.155 331.076,228.653 331.902,228.154 332.727,227.667 333.552,227.182 334.378,226.701 335.203,226.231 
  336.028,225.769 336.853,225.311 337.679,224.859 338.504,224.411 339.329,223.972 340.155,223.542 340.98,223.121 341.805,222.704 342.63,222.293 343.456,221.887 
  344.281,221.485 345.106,221.086 345.932,220.694 346.757,220.331 347.582,219.95 348.407,219.572 349.233,219.198 350.058,218.832 350.883,218.479 351.709,218.13 
  352.534,217.783 353.359,217.442 354.184,217.114 355.01,216.788 355.835,216.468 356.66,216.153 357.485,215.838 358.311,215.526 359.136,215.216 359.961,214.911 
  360.787,214.612 361.612,214.314 362.437,214.016 363.262,213.721 364.088,213.425 364.913,213.137 365.738,212.85 366.564,212.567 367.389,212.289 368.214,212.017 
  369.039,211.748 369.865,211.48 370.69,211.215 371.515,210.951 372.341,210.695 373.166,210.441 373.991,210.187 374.816,209.935 375.642,209.687 376.467,209.439 
  377.292,209.19 378.118,208.944 378.943,208.7 379.768,208.46 380.593,208.222 381.419,207.988 382.244,207.754 383.069,207.523 383.895,207.291 384.72,207.064 
  385.545,206.841 386.37,206.62 387.196,206.4 388.021,206.182 388.846,205.967 389.671,205.751 390.497,205.536 391.322,205.321 392.147,205.105 392.973,204.893 
  393.798,204.68 394.623,204.472 395.448,204.27 396.274,204.069 397.099,203.869 397.924,203.67 398.75,203.475 399.575,203.282 400.4,203.091 401.225,202.901 
  402.051,202.713 402.876,202.527 403.701,202.342 404.527,202.157 405.352,201.972 406.177,201.79 407.002,201.607 407.828,201.427 408.653,201.249 409.478,201.072 
  410.304,200.895 411.129,200.721 411.954,200.55 412.779,200.379 413.605,200.21 414.43,200.042 415.255,199.876 416.081,199.711 416.906,199.546 417.731,199.384 
  418.556,199.221 419.382,199.058 420.207,198.898 421.032,198.738 421.858,198.577 422.683,198.417 423.508,198.26 424.333,198.105 425.159,197.96 425.984,197.806 
  426.809,197.651 427.634,197.499 428.46,197.347 429.285,197.196 430.11,197.045 430.936,196.896 431.761,196.747 432.586,196.598 433.411,196.452 434.237,196.305 
  435.062,196.159 435.887,196.014 436.713,195.87 437.538,195.727 438.363,195.586 439.188,195.445 440.014,195.304 440.839,195.165 441.664,195.027 442.49,194.889 
  443.315,194.752 444.14,194.617 444.965,194.482 445.791,194.346 446.616,194.213 447.441,194.08 448.267,193.948 449.092,193.818 449.917,193.688 450.742,193.558 
  451.568,193.428 452.393,193.299 453.218,193.169 454.044,193.041 454.869,192.914 455.694,192.787 456.519,192.66 457.345,192.533 458.17,192.406 458.995,192.281 
  459.82,192.157 460.646,192.033 461.471,191.909 462.296,191.784 463.122,191.662 463.947,191.54 464.772,191.419 465.597,191.297 466.423,191.178 467.248,191.06 
  468.073,190.941 468.899,190.824 469.724,190.708 470.549,190.592 471.374,190.476 472.2,190.361 473.025,190.248 473.85,190.135 474.676,190.022 475.501,189.908 
  476.326,189.797 477.151,189.686 477.977,189.576 478.802,189.465 479.627,189.355 480.453,189.244 481.278,189.134 482.103,189.026 482.928,188.919 483.754,188.811 
  484.579,188.703 485.404,188.596 486.23,188.488 487.055,188.38 487.88,188.274 488.705,188.169 489.531,188.064 490.356,187.959 491.181,187.854 492.006,187.749 
  492.832,187.647 493.657,187.545 494.482,187.449 495.308,187.346 496.133,187.244 496.958,187.142 497.783,187.04 498.609,186.941 499.434,186.841 500.259,186.742 
  501.085,186.642 501.91,186.543 502.735,186.444 503.56,186.344 504.386,186.246 505.211,186.15 506.036,186.053 506.862,185.956 507.687,185.86 508.512,185.763 
  509.337,185.666 510.163,185.573 510.988,185.479 511.813,185.385 512.639,185.291 513.464,185.197 514.289,185.103 515.114,185.009 515.94,184.918 516.765,184.827 
  517.59,184.736 518.416,184.645 519.241,184.554 520.066,184.463 520.891,184.372 521.717,184.28 522.542,184.189 523.367,184.101 524.192,184.013 525.018,183.924 
  525.843,183.836 526.668,183.748 527.494,183.659 528.319,183.572 529.144,183.487 529.969,183.401 530.795,183.316 531.62,183.23 532.445,183.144 533.271,183.059 
  534.096,182.973 534.921,182.889 535.746,182.806 536.572,182.723 537.397,182.641 538.222,182.558 539.048,182.475 539.873,182.395 540.698,182.315 541.523,182.235 
  542.349,182.155 543.174,182.075 543.999,181.995 544.825,181.914 545.65,181.834 546.475,181.754 547.3,181.677 548.126,181.6 548.951,181.522 549.776,181.445 
  550.602,181.368 551.427,181.291 552.252,181.213 553.077,181.136 553.903,181.059 554.728,180.984 555.553,180.91 556.378,180.835 557.204,180.76 558.029,180.686 
  558.854,180.611 559.68,180.537 560.505,180.462 561.33,180.388 562.155,180.313 562.981,180.239 563.806,180.164 564.631,180.09 565.457,180.015 566.282,179.94 
  567.107,179.869 567.932,179.804 568.758,179.732 569.583,179.66 570.408,179.588 571.234,179.517 572.059,179.445 572.884,179.373 573.709,179.301 574.535,179.23 
  575.36,179.158 576.185,179.086 577.011,179.014 577.836,178.944 578.661,178.875 579.486,178.806 580.312,178.737 581.137,178.668 581.962,178.599 582.788,178.53 
  583.613,178.461 584.438,178.392 585.263,178.323 586.089,178.254 586.914,178.185 587.739,178.116 588.564,178.047 589.39,177.978 590.215,177.911 591.04,177.845 
  591.866,177.779 592.691,177.712 593.516,177.646 594.341,177.58 595.167,177.514 595.992,177.447 596.817,177.381 597.643,177.315 598.468,177.249 599.293,177.185 
  600.118,177.122 600.944,177.058 601.769,176.995 602.594,176.931 603.42,176.868 604.245,176.804 605.07,176.741 605.895,176.677 606.721,176.614 607.546,176.55 
  608.371,176.487 609.197,176.423 610.022,176.36 610.847,176.296 611.672,176.234 612.498,176.173 613.323,176.113 614.148,176.052 614.974,175.991 615.799,175.93 
  616.624,175.87 617.449,175.809 618.275,175.748 619.1,175.687 619.925,175.628 620.751,175.57 621.576,175.512 622.401,175.454 623.226,175.396 624.052,175.338 
  624.877,175.28 625.702,175.222 626.527,175.164 627.353,175.106 628.178,175.048 629.003,174.99 629.829,174.932 630.654,174.874 631.479,174.816 632.304,174.758 
  633.13,174.7 633.955,174.644 634.78,174.589 635.606,174.533 636.431,174.486 637.256,174.431 638.081,174.376 638.907,174.321 639.732,174.266 640.557,174.21 
  641.383,174.155 642.208,174.1 643.033,174.045 643.858,173.989 644.684,173.934 645.509,173.879 646.334,173.824 647.16,173.77 647.985,173.718 648.81,173.665 
  649.635,173.613 650.461,173.56 651.286,173.508 652.111,173.455 652.937,173.403 653.762,173.35 654.587,173.298 655.412,173.245 656.238,173.193 657.063,173.141 
  657.888,173.088 658.713,173.036 659.539,172.983 660.364,172.931 661.189,172.878 662.015,172.826 662.84,172.773 663.665,172.721 664.49,172.67 665.316,172.62 
  666.141,172.57 666.966,172.521 667.792,172.471 668.617,172.421 669.442,172.372 670.267,172.322 671.093,172.272 671.918,172.223 672.743,172.173 673.569,172.123 
  674.394,172.073 675.219,172.024 676.044,171.974 676.87,171.924 677.695,171.875 678.52,171.826 679.346,171.779 680.171,171.733 680.996,171.686 681.821,171.639 
  682.647,171.592 683.472,171.545 684.297,171.498 685.123,171.451 685.948,171.404 686.773,171.357 687.598,171.31 688.424,171.263 689.249,171.216 690.074,171.169 
  690.899,171.122 691.725,171.078 692.55,171.034 693.375,170.99 694.201,170.946 695.026,170.902 695.851,170.857 696.676,170.813 697.502,170.769 698.327,170.725 
  699.152,170.681 699.978,170.636 700.803,170.592 701.628,170.548 702.453,170.504 703.279,170.46 704.104,170.416 704.929,170.376 705.755,170.331 706.58,170.287 
  707.405,170.243 708.23,170.199 709.056,170.155 709.881,170.111 710.706,170.066 711.532,170.024 712.357,169.982 713.182,169.941 714.007,169.899 714.833,169.858 
  715.658,169.817 716.483,169.775 717.309,169.734 718.134,169.692 718.959,169.651 719.784,169.609 720.61,169.568 721.435,169.527 722.26,169.485 723.085,169.444 
  723.911,169.402 724.736,169.361 725.561,169.32 726.387,169.278 727.212,169.237 728.037,169.195 728.862,169.154 729.688,169.112 730.513,169.071 731.338,169.03 
  732.164,168.991 732.989,168.952 733.814,168.914 734.639,168.875 735.465,168.836 736.29,168.798 737.115,168.759 737.941,168.72 738.766,168.682 739.591,168.643 
  740.416,168.604 741.242,168.566 742.067,168.527 742.892,168.489 743.718,168.45 744.543,168.411 745.368,168.373 746.193,168.334 747.019,168.295 747.844,168.257 
  748.669,168.218 749.495,168.179 750.32,168.141 751.145,168.102 751.97,168.063 752.796,168.025 753.621,167.989 754.446,167.953 755.271,167.917 756.097,167.881 
  756.922,167.845 757.747,167.809 758.573,167.773 759.398,167.738 760.223,167.702 761.048,167.666 761.874,167.63 762.699,167.594 763.524,167.558 764.35,167.522 
  765.175,167.486 766,167.45 766.825,167.415 767.651,167.379 768.476,167.343 769.301,167.307 770.127,167.271 770.952,167.235 771.777,167.199 772.602,167.163 
  773.428,167.127 774.253,167.092 775.078,167.056 775.904,167.02 776.729,166.984 777.554,166.948 778.379,166.915 779.205,166.882 780.03,166.849 780.855,166.815 
  781.681,166.782 782.506,166.749 783.331,166.716 784.156,166.683 784.982,166.65 785.807,166.617 786.632,166.584 787.457,166.55 788.283,166.517 789.108,166.484 
  789.933,166.451 790.759,166.418 791.584,166.385 792.409,166.352 793.234,166.319 794.06,166.285 794.885,166.252 795.71,166.219 796.536,166.186 797.361,166.153 
  798.186,166.12 799.011,166.087 799.837,166.053 800.662,166.02 801.487,165.987 802.313,165.954 803.138,165.921 803.963,165.891 804.788,165.86 805.614,165.83 
  806.439,165.799 807.264,165.769 808.09,165.739 808.915,165.708 809.74,165.678 810.565,165.648 811.391,165.617 812.216,165.587 813.041,165.557 813.867,165.526 
  814.692,165.496 815.517,165.465 816.342,165.435 817.168,165.405 817.993,165.374 818.818,165.344 819.644,165.314 820.469,165.283 821.294,165.253 822.119,165.222 
  822.945,165.192 823.77,165.162 824.595,165.131 825.42,165.101 826.246,165.071 827.071,165.04 827.896,165.018 828.722,164.988 829.547,164.957 830.372,164.927 
  831.197,164.897 832.023,164.866 832.848,164.836 833.673,164.819 834.499,164.789 835.324,164.76 836.149,164.732 836.974,164.705 837.8,164.677 838.625,164.65 
  839.45,164.622 840.276,164.594 841.101,164.567 841.926,164.539 842.751,164.512 843.577,164.484 844.402,164.456 845.227,164.429 846.053,164.401 846.878,164.374 
  847.703,164.346 848.528,164.318 849.354,164.291 850.179,164.263 851.004,164.235 851.83,164.208 852.655,164.18 853.48,164.153 854.305,164.125 855.131,164.097 
  855.956,164.07 856.781,164.042 857.606,164.015 858.432,163.987 859.257,163.959 860.082,163.932 860.908,163.904 861.733,163.877 862.558,163.849 863.383,163.821 
  864.209,163.794 865.034,163.766 865.859,163.739 866.685,163.712 867.51,163.687 868.335,163.663 869.16,163.638 869.986,163.613 870.811,163.588 871.636,163.563 
  872.462,163.538 873.287,163.514 874.112,163.489 874.937,163.464 875.763,163.439 876.588,163.414 877.413,163.389 878.239,163.364 879.064,163.34 879.889,163.315 
  880.714,163.29 881.54,163.265 882.365,163.24 883.19,163.215 884.016,163.191 884.841,163.166 885.666,163.141 886.491,163.116 887.317,163.091 888.142,163.066 
  888.967,163.041 889.792,163.017 890.618,162.992 891.443,162.967 892.268,162.942 893.094,162.917 893.919,162.892 894.744,162.867 895.569,162.843 896.395,162.818 
  897.22,162.793 898.045,162.768 898.871,162.743 899.696,162.718 900.521,162.694 901.346,162.669 902.172,162.644 902.997,162.619 903.822,162.594 904.648,162.569 
  905.473,162.544 906.298,162.52 907.123,162.498 907.949,162.475 908.774,162.453 909.599,162.431 910.425,162.409 911.25,162.387 912.075,162.365 912.9,162.343 
  913.726,162.321 914.551,162.299 915.376,162.277 916.202,162.255 917.027,162.233 917.852,162.21 918.677,162.188 919.503,162.166 920.328,162.144 921.153,162.122 
  921.978,162.1 922.804,162.078 923.629,162.056 924.454,162.034 925.28,162.012 926.105,161.99 926.93,161.967 927.755,161.945 928.581,161.923 929.406,161.901 
  930.231,161.879 931.057,161.857 931.882,161.835 932.707,161.813 933.532,161.791 934.358,161.769 935.183,161.747 936.008,161.725 936.834,161.702 937.659,161.68 
  938.484,161.658 939.309,161.636 940.135,161.614 940.96,161.592 941.785,161.57 942.611,161.548 943.436,161.526 944.261,161.504 945.086,161.482 945.912,161.459 
  946.737,161.437 947.562,161.415 948.388,161.393 949.213,161.371 950.038,161.349 950.863,161.327 951.689,161.305 952.514,161.283 953.339,161.261 954.164,161.239 
  954.99,161.219 955.815,161.2 956.64,161.181 957.466,161.161 958.291,161.142 959.116,161.123 959.941,161.103 960.767,161.084 961.592,161.065 962.417,161.045 
  963.243,161.026 964.068,161.007 964.893,160.987 965.718,160.968 966.544,160.949 967.369,160.929 968.194,160.91 969.02,160.891 969.845,160.871 970.67,160.852 
  971.495,160.833 972.321,160.813 973.146,160.794 973.971,160.775 974.797,160.755 975.622,160.736 976.447,160.717 977.272,160.697 978.098,160.678 978.923,160.659 
  979.748,160.64 980.574,160.62 981.399,160.601 982.224,160.582 983.049,160.562 983.875,160.543 984.7,160.524 985.525,160.504 986.35,160.485 987.176,160.466 
  988.001,160.446 988.826,160.427 989.652,160.408 990.477,160.388 991.302,160.369 992.127,160.35 992.953,160.33 993.778,160.311 994.603,160.292 995.429,160.272 
  996.254,160.253 997.079,160.234 997.904,160.214 998.73,160.195 999.555,160.176 1000.38,160.156 1001.21,160.137 1002.03,160.118 1002.86,160.098 1003.68,160.079 
  1004.51,160.06 1005.33,160.04 1006.16,160.024 1006.98,160.007 1007.81,159.991 1008.63,159.974 1009.46,159.96 1010.28,159.944 1011.11,159.927 1011.93,159.911 
  1012.76,159.894 1013.58,159.878 1014.41,159.861 1015.24,159.844 1016.06,159.828 1016.89,159.811 1017.71,159.795 1018.54,159.778 1019.36,159.762 1020.19,159.745 
  1021.01,159.728 1021.84,159.712 1022.66,159.695 1023.49,159.679 1024.31,159.662 1025.14,159.646 1025.96,159.629 1026.79,159.612 1027.61,159.596 1028.44,159.579 
  1029.27,159.563 1030.09,159.546 1030.92,159.53 1031.74,159.513 1032.57,159.497 1033.39,159.48 1034.22,159.463 1035.04,159.447 1035.87,159.43 1036.69,159.414 
  1037.52,159.397 1038.34,159.381 1039.17,159.364 1039.99,159.347 1040.82,159.331 1041.64,159.314 1042.47,159.298 1043.29,159.281 1044.12,159.265 1044.95,159.248 
  1045.77,159.231 1046.6,159.215 1047.42,159.198 1048.25,159.182 1049.07,159.165 1049.9,159.149 1050.72,159.132 1051.55,159.116 1052.37,159.099 1053.2,159.082 
  1054.02,159.066 1054.85,159.049 1055.67,159.033 1056.5,159.016 1057.32,159 1058.15,158.983 1058.98,158.966 1059.8,158.95 1060.63,158.933 1061.45,158.917 
  1062.28,158.9 1063.1,158.884 1063.93,158.867 1064.75,158.85 1065.58,158.834 1066.4,158.817 1067.23,158.801 1068.05,158.784 1068.88,158.768 1069.7,158.751 
  1070.53,158.735 1071.35,158.718 1072.18,158.701 1073.01,158.685 1073.83,158.668 1074.66,158.652 1075.48,158.635 1076.31,158.619 1077.13,158.605 1077.96,158.591 
  1078.78,158.577 1079.61,158.563 1080.43,158.55 1081.26,158.536 1082.08,158.522 1082.91,158.508 1083.73,158.494 1084.56,158.481 1085.38,158.467 1086.21,158.453 
  1087.03,158.439 1087.86,158.425 1088.69,158.412 1089.51,158.398 1090.34,158.384 1091.16,158.37 1091.99,158.356 1092.81,158.342 1093.64,158.329 1094.46,158.315 
  1095.29,158.301 1096.11,158.287 1096.94,158.273 1097.76,158.26 1098.59,158.246 1099.41,158.232 1100.24,158.218 1101.06,158.204 1101.89,158.191 1102.72,158.177 
  1103.54,158.163 1104.37,158.149 1105.19,158.135 1106.02,158.122 1106.84,158.108 1107.67,158.094 1108.49,158.08 1109.32,158.066 1110.14,158.053 1110.97,158.039 
  1111.79,158.025 1112.62,158.011 1113.44,157.997 1114.27,157.984 1115.09,157.97 1115.92,157.956 1116.75,157.942 1117.57,157.928 1118.4,157.915 1119.22,157.901 
  1120.05,157.887 1120.87,157.873 1121.7,157.859 1122.52,157.846 1123.35,157.832 1124.17,157.818 1125,157.804 1125.82,157.79 1126.65,157.777 1127.47,157.763 
  1128.3,157.749 1129.12,157.735 1129.95,157.721 1130.77,157.708 1131.6,157.694 1132.43,157.68 1133.25,157.666 1134.08,157.652 1134.9,157.638 1135.73,157.625 
  1136.55,157.611 1137.38,157.597 1138.2,157.583 1139.03,157.569 1139.85,157.556 1140.68,157.542 1141.5,157.528 1142.33,157.514 1143.15,157.5 1143.98,157.487 
  1144.8,157.473 1145.63,157.459 1146.46,157.445 1147.28,157.431 1148.11,157.418 1148.93,157.404 1149.76,157.39 1150.58,157.376 1151.41,157.362 1152.23,157.349 
  1153.06,157.335 1153.88,157.321 1154.71,157.307 1155.53,157.293 1156.36,157.28 1157.18,157.266 1158.01,157.252 1158.83,157.238 1159.66,157.224 1160.49,157.211 
  1161.31,157.197 1162.14,157.183 1162.96,157.169 1163.79,157.155 1164.61,157.142 1165.44,157.129 1166.26,157.118 1167.09,157.107 1167.91,157.096 1168.74,157.085 
  1169.56,157.074 1170.39,157.063 1171.21,157.052 1172.04,157.041 1172.86,157.03 1173.69,157.019 1174.51,157.008 1175.34,156.997 1176.17,156.986 1176.99,156.975 
  1177.82,156.963 1178.64,156.952 1179.47,156.941 1180.29,156.93 1181.12,156.919 1181.94,156.908 1182.77,156.897 1183.59,156.886 1184.42,156.875 1185.24,156.864 
  1186.07,156.853 1186.89,156.842 1187.72,156.831 1188.54,156.82 1189.37,156.809 1190.2,156.798 1191.02,156.787 1191.85,156.776 1192.67,156.765 1193.5,156.754 
  1194.32,156.743 1195.15,156.732 1195.97,156.721 1196.8,156.709 1197.62,156.698 1198.45,156.687 1199.27,156.676 1200.1,156.665 1200.92,156.654 1201.75,156.643 
  1202.57,156.632 1203.4,156.621 1204.22,156.61 1205.05,156.599 1205.88,156.588 1206.7,156.577 1207.53,156.566 1208.35,156.555 1209.18,156.544 1210,156.533 
  1210.83,156.522 1211.65,156.511 1212.48,156.5 1213.3,156.489 1214.13,156.478 1214.95,156.467 1215.78,156.455 1216.6,156.444 1217.43,156.433 1218.25,156.422 
  1219.08,156.411 1219.91,156.4 1220.73,156.389 1221.56,156.378 1222.38,156.367 1223.21,156.356 1224.03,156.345 1224.86,156.334 1225.68,156.323 1226.51,156.312 
  1227.33,156.301 1228.16,156.29 1228.98,156.279 1229.81,156.268 1230.63,156.257 1231.46,156.246 1232.28,156.235 1233.11,156.224 1233.94,156.213 1234.76,156.201 
  1235.59,156.19 1236.41,156.179 1237.24,156.168 1238.06,156.157 1238.89,156.146 1239.71,156.135 1240.54,156.124 1241.36,156.113 1242.19,156.102 1243.01,156.091 
  1243.84,156.08 1244.66,156.069 1245.49,156.058 1246.31,156.047 1247.14,156.036 1247.96,156.025 1248.79,156.014 1249.62,156.003 1250.44,155.992 1251.27,155.981 
  1252.09,155.97 1252.92,155.959 1253.74,155.947 1254.57,155.936 1255.39,155.925 1256.22,155.914 1257.04,155.903 1257.87,155.892 1258.69,155.881 1259.52,155.87 
  1260.34,155.859 1261.17,155.848 1261.99,155.837 1262.82,155.826 1263.65,155.815 1264.47,155.804 1265.3,155.793 1266.12,155.782 1266.95,155.771 1267.77,155.76 
  1268.6,155.749 1269.42,155.738 1270.25,155.727 1271.07,155.716 1271.9,155.705 1272.72,155.693 1273.55,155.682 1274.37,155.671 1275.2,155.66 1276.02,155.649 
  1276.85,155.638 1277.68,155.627 1278.5,155.616 1279.33,155.605 1280.15,155.594 1280.98,155.583 1281.8,155.572 1282.63,155.561 1283.45,155.55 1284.28,155.539 
  1285.1,155.528 1285.93,155.517 1286.75,155.506 1287.58,155.495 1288.4,155.486 1289.23,155.478 1290.05,155.47 1290.88,155.462 1291.7,155.453 1292.53,155.445 
  1293.36,155.437 1294.18,155.428 1295.01,155.42 1295.83,155.412 1296.66,155.404 1297.48,155.395 1298.31,155.387 1299.13,155.379 1299.96,155.37 1300.78,155.362 
  1301.61,155.354 1302.43,155.346 1303.26,155.337 1304.08,155.329 1304.91,155.321 1305.73,155.312 1306.56,155.304 1307.39,155.296 1308.21,155.288 1309.04,155.279 
  1309.86,155.271 1310.69,155.263 1311.51,155.255 1312.34,155.246 1313.16,155.238 1313.99,155.23 1314.81,155.221 1315.64,155.213 1316.46,155.205 1317.29,155.197 
  1318.11,155.188 1318.94,155.18 1319.76,155.172 1320.59,155.163 1321.42,155.155 1322.24,155.147 1323.07,155.139 1323.89,155.13 1324.72,155.122 1325.54,155.114 
  1326.37,155.105 1327.19,155.097 1328.02,155.089 1328.84,155.081 1329.67,155.072 1330.49,155.064 1331.32,155.056 1332.14,155.047 1332.97,155.039 1333.79,155.031 
  1334.62,155.023 1335.44,155.014 1336.27,155.006 1337.1,154.998 1337.92,154.989 1338.75,154.981 1339.57,154.973 1340.4,154.965 1341.22,154.956 1342.05,154.948 
  1342.87,154.94 1343.7,154.931 1344.52,154.923 1345.35,154.915 1346.17,154.907 1347,154.898 1347.82,154.89 1348.65,154.882 1349.47,154.874 1350.3,154.865 
  1351.13,154.857 1351.95,154.849 1352.78,154.84 1353.6,154.832 1354.43,154.824 1355.25,154.816 1356.08,154.807 1356.9,154.799 1357.73,154.791 1358.55,154.782 
  1359.38,154.774 1360.2,154.766 1361.03,154.758 1361.85,154.749 1362.68,154.741 1363.5,154.733 1364.33,154.724 1365.16,154.716 1365.98,154.708 1366.81,154.7 
  1367.63,154.691 1368.46,154.683 1369.28,154.675 1370.11,154.666 1370.93,154.658 1371.76,154.65 1372.58,154.642 1373.41,154.633 1374.23,154.625 1375.06,154.617 
  1375.88,154.608 1376.71,154.6 1377.53,154.592 1378.36,154.584 1379.18,154.575 1380.01,154.567 1380.84,154.559 1381.66,154.55 1382.49,154.542 1383.31,154.534 
  1384.14,154.526 1384.96,154.517 1385.79,154.509 1386.61,154.501 1387.44,154.493 1388.26,154.484 1389.09,154.476 1389.91,154.468 1390.74,154.459 1391.56,154.451 
  1392.39,154.443 1393.21,154.435 1394.04,154.426 1394.87,154.418 1395.69,154.41 1396.52,154.401 1397.34,154.393 1398.17,154.385 1398.99,154.377 1399.82,154.368 
  1400.64,154.36 1401.47,154.352 1402.29,154.343 1403.12,154.335 1403.94,154.327 1404.77,154.319 1405.59,154.31 1406.42,154.302 1407.24,154.294 1408.07,154.285 
  1408.89,154.277 1409.72,154.269 1410.55,154.261 1411.37,154.252 1412.2,154.244 1413.02,154.236 1413.85,154.227 1414.67,154.219 1415.5,154.211 1416.32,154.203 
  1417.15,154.194 1417.97,154.186 1418.8,154.178 1419.62,154.17 1420.45,154.161 1421.27,154.153 1422.1,154.145 1422.92,154.136 1423.75,154.128 1424.58,154.12 
  1425.4,154.112 1426.23,154.103 1427.05,154.095 1427.88,154.087 1428.7,154.078 1429.53,154.07 1430.35,154.062 1431.18,154.054 1432,154.045 1432.83,154.037 
  1433.65,154.029 1434.48,154.02 1435.3,154.012 1436.13,154.004 1436.95,153.996 1437.78,153.987 1438.61,153.979 1439.43,153.971 1440.26,153.962 1441.08,153.954 
  1441.91,153.946 1442.73,153.938 1443.56,153.929 1444.38,153.921 1445.21,153.913 1446.03,153.904 1446.86,153.896 1447.68,153.888 1448.51,153.88 1449.33,153.871 
  1450.16,153.863 1450.98,153.855 1451.81,153.846 1452.63,153.84 1453.46,153.834 1454.29,153.829 1455.11,153.823 1455.94,153.817 1456.76,153.812 1457.59,153.806 
  1458.41,153.801 1459.24,153.795 1460.06,153.79 1460.89,153.784 1461.71,153.779 1462.54,153.773 1463.36,153.768 1464.19,153.762 1465.01,153.757 1465.84,153.754 
  1466.66,153.748 1467.49,153.743 1468.32,153.737 1469.14,153.732 1469.97,153.726 1470.79,153.721 1471.62,153.715 1472.44,153.71 1473.27,153.704 1474.09,153.699 
  1474.92,153.693 1475.74,153.688 1476.57,153.682 1477.39,153.677 1478.22,153.671 1479.04,153.666 1479.87,153.66 1480.69,153.655 1481.52,153.649 1482.35,153.644 
  1483.17,153.638 1484,153.633 1484.82,153.627 1485.65,153.621 1486.47,153.616 1487.3,153.61 1488.12,153.605 1488.95,153.599 1489.77,153.594 1490.6,153.588 
  1491.42,153.583 1492.25,153.577 1493.07,153.572 1493.9,153.566 1494.72,153.561 1495.55,153.555 1496.37,153.55 1497.2,153.544 1498.03,153.539 1498.85,153.533 
  1499.68,153.528 1500.5,153.522 1501.33,153.517 1502.15,153.511 1502.98,153.506 1503.8,153.5 1504.63,153.494 1505.45,153.489 1506.28,153.483 1507.1,153.478 
  1507.93,153.472 1508.75,153.467 1509.58,153.461 1510.4,153.456 1511.23,153.45 1512.06,153.445 1512.88,153.439 1513.71,153.434 1514.53,153.428 1515.36,153.423 
  1516.18,153.417 1517.01,153.412 1517.83,153.406 1518.66,153.401 1519.48,153.395 1520.31,153.39 1521.13,153.384 1521.96,153.379 1522.78,153.373 1523.61,153.367 
  1524.43,153.362 1525.26,153.356 1526.09,153.351 1526.91,153.345 1527.74,153.34 1528.56,153.334 1529.39,153.329 1530.21,153.323 1531.04,153.318 1531.86,153.312 
  1532.69,153.307 1533.51,153.301 1534.34,153.296 1535.16,153.29 1535.99,153.285 1536.81,153.279 1537.64,153.274 1538.46,153.268 1539.29,153.263 1540.11,153.257 
  1540.94,153.252 1541.77,153.246 1542.59,153.24 1543.42,153.235 1544.24,153.229 1545.07,153.224 1545.89,153.218 1546.72,153.213 1547.54,153.207 1548.37,153.202 
  1549.19,153.196 1550.02,153.191 1550.84,153.185 1551.67,153.18 1552.49,153.174 1553.32,153.169 1554.14,153.163 1554.97,153.158 1555.8,153.152 1556.62,153.147 
  1557.45,153.141 1558.27,153.136 1559.1,153.13 1559.92,153.125 1560.75,153.119 1561.57,153.113 1562.4,153.108 1563.22,153.102 1564.05,153.097 1564.87,153.091 
  1565.7,153.086 1566.52,153.08 1567.35,153.075 1568.17,153.069 1569,153.064 1569.82,153.058 1570.65,153.053 1571.48,153.047 1572.3,153.042 1573.13,153.036 
  1573.95,153.031 1574.78,153.025 1575.6,153.02 1576.43,153.014 1577.25,153.009 1578.08,153.003 1578.9,152.998 1579.73,152.992 1580.55,152.986 1581.38,152.981 
  1582.2,152.975 1583.03,152.97 1583.85,152.964 1584.68,152.959 1585.51,152.953 1586.33,152.948 1587.16,152.942 1587.98,152.937 1588.81,152.931 1589.63,152.926 
  1590.46,152.92 1591.28,152.915 1592.11,152.909 1592.93,152.904 1593.76,152.898 1594.58,152.893 1595.41,152.887 1596.23,152.882 1597.06,152.876 1597.88,152.871 
  1598.71,152.865 1599.54,152.859 1600.36,152.854 1601.19,152.848 1602.01,152.843 1602.84,152.837 1603.66,152.832 1604.49,152.826 1605.31,152.821 1606.14,152.815 
  1606.96,152.81 1607.79,152.804 1608.61,152.799 1609.44,152.793 1610.26,152.788 1611.09,152.782 1611.91,152.777 1612.74,152.771 1613.56,152.766 1614.39,152.76 
  1615.22,152.755 1616.04,152.749 1616.87,152.744 1617.69,152.738 1618.52,152.732 1619.34,152.727 1620.17,152.721 1620.99,152.716 1621.82,152.71 1622.64,152.705 
  1623.47,152.699 1624.29,152.694 1625.12,152.688 1625.94,152.683 1626.77,152.677 1627.59,152.672 1628.42,152.666 1629.25,152.661 1630.07,152.655 1630.9,152.65 
  1631.72,152.644 1632.55,152.639 1633.37,152.633 1634.2,152.628 1635.02,152.622 1635.85,152.617 1636.67,152.611 1637.5,152.605 1638.32,152.6 1639.15,152.594 
  1639.97,152.589 1640.8,152.583 1641.62,152.578 1642.45,152.572 1643.28,152.567 1644.1,152.561 1644.93,152.556 1645.75,152.55 1646.58,152.545 1647.4,152.539 
  1648.23,152.534 1649.05,152.528 1649.88,152.523 1650.7,152.517 1651.53,152.512 1652.35,152.506 1653.18,152.501 1654,152.495 1654.83,152.49 1655.65,152.484 
  1656.48,152.478 1657.3,152.473 1658.13,152.467 1658.96,152.462 1659.78,152.456 1660.61,152.451 1661.43,152.445 1662.26,152.44 1663.08,152.434 1663.91,152.429 
  1664.73,152.423 1665.56,152.418 1666.38,152.412 1667.21,152.407 1668.03,152.401 1668.86,152.396 1669.68,152.39 1670.51,152.385 1671.33,152.379 1672.16,152.374 
  1672.99,152.368 1673.81,152.363 1674.64,152.357 1675.46,152.351 1676.29,152.346 1677.11,152.34 1677.94,152.335 1678.76,152.329 1679.59,152.324 1680.41,152.318 
  1681.24,152.313 1682.06,152.307 1682.89,152.302 1683.71,152.296 1684.54,152.291 1685.36,152.285 1686.19,152.28 1687.02,152.274 1687.84,152.269 1688.67,152.263 
  1689.49,152.258 1690.32,152.252 1691.14,152.247 1691.97,152.242 1692.79,152.24 1693.62,152.237 1694.44,152.234 1695.27,152.231 1696.09,152.229 1696.92,152.226 
  1697.74,152.223 1698.57,152.22 1699.39,152.218 1700.22,152.215 1701.04,152.212 1701.87,152.209 1702.7,152.207 1703.52,152.204 1704.35,152.201 1705.17,152.198 
  1706,152.196 1706.82,152.193 1707.65,152.19 1708.47,152.187 1709.3,152.184 1710.12,152.182 1710.95,152.179 1711.77,152.176 1712.6,152.173 1713.42,152.171 
  1714.25,152.168 1715.07,152.165 1715.9,152.162 1716.73,152.16 1717.55,152.157 1718.38,152.154 1719.2,152.151 1720.03,152.149 1720.85,152.146 1721.68,152.143 
  1722.5,152.14 1723.33,152.138 1724.15,152.135 1724.98,152.132 1725.8,152.129 1726.63,152.126 1727.45,152.124 1728.28,152.121 1729.1,152.118 1729.93,152.115 
  1730.76,152.113 1731.58,152.11 1732.41,152.107 1733.23,152.104 1734.06,152.102 1734.88,152.099 1735.71,152.096 1736.53,152.093 1737.36,152.091 1738.18,152.088 
  1739.01,152.085 1739.83,152.082 1740.66,152.08 1741.48,152.077 1742.31,152.074 1743.13,152.071 1743.96,152.069 1744.78,152.066 1745.61,152.063 1746.44,152.06 
  1747.26,152.057 1748.09,152.055 1748.91,152.052 1749.74,152.049 1750.56,152.046 1751.39,152.044 1752.21,152.041 1753.04,152.038 1753.86,152.035 1754.69,152.033 
  1755.51,152.03 1756.34,152.027 1757.16,152.024 1757.99,152.022 1758.81,152.019 1759.64,152.016 1760.47,152.013 1761.29,152.011 1762.12,152.008 1762.94,152.005 
  1763.77,152.002 1764.59,151.999 1765.42,151.997 1766.24,151.994 1767.07,151.991 1767.89,151.988 1768.72,151.986 1769.54,151.983 1770.37,151.98 1771.19,151.977 
  1772.02,151.975 1772.84,151.972 1773.67,151.969 1774.49,151.966 1775.32,151.964 1776.15,151.961 1776.97,151.958 1777.8,151.955 1778.62,151.953 1779.45,151.95 
  1780.27,151.947 1781.1,151.944 1781.92,151.942 1782.75,151.939 1783.57,151.936 1784.4,151.933 1785.22,151.93 1786.05,151.928 1786.87,151.925 1787.7,151.922 
  1788.52,151.919 1789.35,151.917 1790.18,151.914 1791,151.911 1791.83,151.908 1792.65,151.906 1793.48,151.903 1794.3,151.9 1795.13,151.897 1795.95,151.895 
  1796.78,151.892 1797.6,151.889 1798.43,151.886 1799.25,151.884 1800.08,151.881 1800.9,151.878 1801.73,151.875 1802.55,151.872 1803.38,151.87 1804.21,151.867 
  1805.03,151.864 1805.86,151.861 1806.68,151.859 1807.51,151.856 1808.33,151.853 1809.16,151.85 1809.98,151.848 1810.81,151.845 1811.63,151.842 1812.46,151.839 
  1813.28,151.837 1814.11,151.834 1814.93,151.831 1815.76,151.828 1816.58,151.826 1817.41,151.823 1818.23,151.82 1819.06,151.817 1819.89,151.815 1820.71,151.812 
  1821.54,151.809 1822.36,151.806 1823.19,151.803 1824.01,151.801 1824.84,151.798 1825.66,151.795 1826.49,151.792 1827.31,151.79 1828.14,151.787 1828.96,151.784 
  1829.79,151.781 1830.61,151.779 1831.44,151.776 1832.26,151.773 1833.09,151.77 1833.92,151.768 1834.74,151.765 1835.57,151.762 1836.39,151.759 1837.22,151.757 
  1838.04,151.754 1838.87,151.751 1839.69,151.748 1840.52,151.745 1841.34,151.743 1842.17,151.74 1842.99,151.737 1843.82,151.734 1844.64,151.732 1845.47,151.729 
  1846.29,151.726 1847.12,151.723 1847.95,151.721 1848.77,151.718 1849.6,151.715 1850.42,151.712 1851.25,151.71 1852.07,151.707 1852.9,151.704 1853.72,151.701 
  1854.55,151.699 1855.37,151.696 1856.2,151.693 1857.02,151.69 1857.85,151.688 1858.67,151.685 1859.5,151.682 1860.32,151.679 1861.15,151.676 1861.97,151.674 
  1862.8,151.671 1863.63,151.668 1864.45,151.665 1865.28,151.663 1866.1,151.66 1866.93,151.657 1867.75,151.654 1868.58,151.652 1869.4,151.649 1870.23,151.646 
  1871.05,151.643 1871.88,151.641 1872.7,151.638 1873.53,151.635 1874.35,151.632 1875.18,151.63 1876,151.627 1876.83,151.624 1877.66,151.621 1878.48,151.618 
  1879.31,151.616 1880.13,151.613 1880.96,151.61 1881.78,151.607 1882.61,151.605 1883.43,151.602 1884.26,151.599 1885.08,151.596 1885.91,151.594 1886.73,151.591 
  1887.56,151.588 1888.38,151.585 1889.21,151.583 1890.03,151.58 1890.86,151.577 1891.69,151.574 1892.51,151.572 1893.34,151.569 1894.16,151.566 1894.99,151.563 
  1895.81,151.561 1896.64,151.558 1897.46,151.555 1898.29,151.552 1899.11,151.549 1899.94,151.547 1900.76,151.544 1901.59,151.541 1902.41,151.538 1903.24,151.536 
  1904.06,151.533 1904.89,151.53 1905.71,151.527 1906.54,151.525 1907.37,151.522 1908.19,151.519 1909.02,151.516 1909.84,151.514 1910.67,151.511 1911.49,151.508 
  1912.32,151.505 1913.14,151.503 1913.97,151.5 1914.79,151.497 1915.62,151.494 1916.44,151.492 1917.27,151.489 1918.09,151.486 1918.92,151.483 1919.74,151.48 
  1920.57,151.478 1921.4,151.475 1922.22,151.472 1923.05,151.469 1923.87,151.467 1924.7,151.464 1925.52,151.461 1926.35,151.458 1927.17,151.456 1928,151.453 
  1928.82,151.45 1929.65,151.447 1930.47,151.445 1931.3,151.442 1932.12,151.439 1932.95,151.436 1933.77,151.434 1934.6,151.431 1935.42,151.428 1936.25,151.425 
  1937.08,151.422 1937.9,151.42 1938.73,151.417 1939.55,151.414 1940.38,151.411 1941.2,151.409 1942.03,151.406 1942.85,151.403 1943.68,151.4 1944.5,151.398 
  1945.33,151.395 1946.15,151.392 1946.98,151.389 1947.8,151.387 1948.63,151.384 1949.45,151.381 1950.28,151.378 1951.11,151.376 1951.93,151.374 
  "/>
<polyline clip-path="url(#clip5102)" style="stroke:#e26f46; stroke-width:4; stroke-opacity:1; fill:none" points="
  245.247,1775.51 246.072,1756.35 246.898,1739.85 247.723,1720.58 248.548,1704.91 249.374,1693.91 250.199,1679.13 251.024,1664.7 251.849,1651.16 252.675,1637.68 
  253.5,1627.68 254.325,1616.27 255.151,1608.11 255.976,1599.42 256.801,1590.61 257.626,1583.63 258.452,1574.82 259.277,1566.6 260.102,1560.04 260.927,1553.77 
  261.753,1547.15 262.578,1540.58 263.403,1535.32 264.229,1528.7 265.054,1523.44 265.879,1517.29 266.704,1511.61 267.53,1506.82 268.355,1501.8 269.18,1497.24 
  270.006,1492.51 270.831,1487.78 271.656,1482.87 272.481,1477.97 273.307,1473.29 274.132,1468.15 274.957,1464.78 275.783,1460.46 276.608,1456.5 277.433,1453.49 
  278.258,1449.88 279.084,1447.16 279.909,1443.61 280.734,1440 281.56,1436.1 282.385,1433.32 283.21,1429.36 284.035,1425.69 284.861,1422.26 285.686,1419.49 
  286.511,1415.52 287.337,1412.09 288.162,1408.43 288.987,1405.41 289.812,1402.34 290.638,1399.2 291.463,1396.07 292.288,1393.59 293.113,1390.69 293.939,1387.85 
  294.764,1385.07 295.589,1382.41 296.415,1379.75 297.24,1376.91 298.065,1374.01 298.89,1371.18 299.716,1368.63 300.541,1365.97 301.366,1362.96 302.192,1360.18 
  303.017,1357.99 303.842,1355.09 304.667,1352.79 305.493,1349.83 306.318,1347.17 307.143,1344.15 307.969,1341.55 308.794,1338.89 309.619,1335.93 310.444,1333.57 
  311.27,1331.79 312.095,1329.78 312.92,1327.71 313.746,1325.65 314.571,1323.52 315.396,1321.45 316.221,1318.96 317.047,1317.31 317.872,1314.94 318.697,1312.4 
  319.523,1310.39 320.348,1308.2 321.173,1305.95 321.998,1304.24 322.824,1302.88 323.649,1300.63 324.474,1297.91 325.299,1295.9 326.125,1294.42 326.95,1292.12 
  327.775,1289.99 328.601,1287.68 329.426,1285.44 330.251,1283.54 331.076,1281 331.902,1278.75 332.727,1276.69 333.552,1274.14 334.378,1272.07 335.203,1270.18 
  336.028,1268.23 336.853,1266.16 337.679,1263.97 338.504,1261.67 339.329,1259.83 340.155,1258 340.98,1255.75 341.805,1254.04 342.63,1252.09 343.456,1250.14 
  344.281,1247.89 345.106,1245.88 345.932,1244.1 346.757,1242.15 347.582,1240.56 348.407,1238.31 349.233,1236.71 350.058,1235 350.883,1232.69 351.709,1230.92 
  352.534,1228.79 353.359,1226.13 354.184,1224.35 355.01,1222.82 355.835,1221.1 356.66,1219.51 357.485,1218.03 358.311,1216.14 359.136,1214.36 359.961,1212.71 
  360.787,1211.35 361.612,1209.75 362.437,1207.86 363.262,1206.38 364.088,1204.72 364.913,1203.48 365.738,1201.71 366.564,1199.82 367.389,1198.28 368.214,1196.62 
  369.039,1194.85 369.865,1193.07 370.69,1191.83 371.515,1189.82 372.341,1187.52 373.166,1185.68 373.991,1184.03 374.816,1182.14 375.642,1180.42 376.467,1178.71 
  377.292,1176.52 378.118,1174.45 378.943,1173.09 379.768,1171.55 380.593,1169.54 381.419,1168.06 382.244,1166.64 383.069,1165.11 383.895,1163.39 384.72,1161.62 
  385.545,1160.32 386.37,1158.54 387.196,1156.83 388.021,1155.23 388.846,1153.69 389.671,1152.04 390.497,1150.26 391.322,1149.14 392.147,1147.25 392.973,1145.59 
  393.798,1143.88 394.623,1142.7 395.448,1141.04 396.274,1139.5 397.099,1138.32 397.924,1136.72 398.75,1134.95 399.575,1133.65 400.4,1132.11 401.225,1130.46 
  402.051,1128.8 402.876,1127.5 403.701,1125.78 404.527,1124.54 405.352,1122.89 406.177,1121.64 407.002,1120.17 407.828,1118.69 408.653,1117.45 409.478,1116.2 
  410.304,1114.49 411.129,1112.66 411.954,1111.24 412.779,1109.58 413.605,1108.22 414.43,1106.57 415.255,1104.73 416.081,1103.67 416.906,1102.07 417.731,1100.89 
  418.556,1099.29 419.382,1097.93 420.207,1096.57 421.032,1094.86 421.858,1093.74 422.683,1092.2 423.508,1090.54 424.333,1089.3 425.159,1088.06 425.984,1086.58 
  426.809,1085.1 427.634,1083.86 428.46,1082.09 429.285,1080.67 430.11,1079.31 430.936,1077.95 431.761,1076.71 432.586,1075.35 433.411,1073.99 434.237,1072.33 
  435.062,1070.91 435.887,1069.37 436.713,1068.07 437.538,1066.65 438.363,1065.18 439.188,1063.64 440.014,1061.98 440.839,1060.62 441.664,1059.26 442.49,1057.72 
  443.315,1056.31 444.14,1054.83 444.965,1053.23 445.791,1051.93 446.616,1050.51 447.441,1048.91 448.267,1047.26 449.092,1045.9 449.917,1044.89 450.742,1043.59 
  451.568,1042.35 452.393,1041.17 453.218,1039.45 454.044,1037.98 454.869,1036.56 455.694,1035.26 456.519,1034.19 457.345,1032.83 458.17,1031.71 458.995,1030.41 
  459.82,1029.52 460.646,1028.28 461.471,1026.8 462.296,1025.5 463.122,1024.26 463.947,1023.07 464.772,1021.77 465.597,1020.3 466.423,1019.29 467.248,1018.11 
  468.073,1016.87 468.899,1015.56 469.724,1014.09 470.549,1012.96 471.374,1011.43 472.2,1010.24 473.025,1009.24 473.85,1007.88 474.676,1006.64 475.501,1005.33 
  476.326,1003.97 477.151,1002.56 477.977,1001.14 478.802,999.895 479.627,998.653 480.453,997.589 481.278,996.17 482.103,995.165 482.928,993.982 483.754,992.977 
  484.579,991.676 485.404,990.611 486.23,989.251 487.055,988.187 487.88,986.531 488.705,985.231 489.531,983.989 490.356,982.865 491.181,981.801 492.006,980.5 
  492.832,979.554 493.657,978.549 494.482,977.307 495.308,975.947 496.133,974.528 496.958,973.109 497.783,971.749 498.609,970.744 499.434,969.798 500.259,968.615 
  501.085,967.432 501.91,966.013 502.735,964.89 503.56,963.707 504.386,962.465 505.211,961.224 506.036,960.218 506.862,958.799 507.687,957.617 508.512,956.138 
  509.337,954.897 510.163,953.537 510.988,952.354 511.813,951.29 512.639,950.225 513.464,948.984 514.289,947.801 515.114,946.5 515.94,945.554 516.765,944.726 
  517.59,943.603 518.416,942.716 519.241,941.533 520.066,940.528 520.891,939.345 521.717,937.926 522.542,936.507 523.367,935.384 524.192,934.319 525.018,932.9 
  525.843,931.777 526.668,930.653 527.494,929.293 528.319,927.933 529.144,926.987 529.969,925.982 530.795,924.799 531.62,923.617 532.445,922.552 533.271,921.37 
  534.096,919.95 534.921,918.65 535.746,917.526 536.572,916.284 537.397,915.043 538.222,913.978 539.048,912.973 539.873,912.086 540.698,911.14 541.523,909.898 
  542.349,909.011 543.174,907.77 543.999,906.587 544.825,905.641 545.65,904.34 546.475,903.157 547.3,902.448 548.126,901.206 548.951,900.142 549.776,899.196 
  550.602,898.013 551.427,896.771 552.252,895.411 553.077,894.229 553.903,893.164 554.728,892.514 555.553,891.686 556.378,890.444 557.204,889.498 558.029,888.434 
  558.854,887.015 559.68,886.069 560.505,885.004 561.33,883.822 562.155,882.757 562.981,881.752 563.806,880.51 564.631,879.091 565.457,877.968 566.282,876.608 
  567.107,875.603 567.932,874.775 568.758,874.124 569.583,872.705 570.408,871.877 571.234,870.931 572.059,869.808 572.884,868.803 573.709,867.738 574.535,866.792 
  575.36,865.55 576.185,864.131 577.011,863.008 577.836,861.884 578.661,860.997 579.486,860.11 580.312,859.164 581.137,858.277 581.962,857.272 582.788,856.149 
  583.613,855.202 584.438,854.375 585.263,853.133 586.089,852.128 586.914,851.122 587.739,849.94 588.564,848.639 589.39,847.634 590.215,846.747 591.04,845.564 
  591.866,844.736 592.691,843.79 593.516,842.667 594.341,841.484 595.167,840.479 595.992,839.296 596.817,838.409 597.643,837.582 598.468,836.399 599.293,835.689 
  600.118,834.98 600.944,833.856 601.769,832.792 602.594,831.728 603.42,830.486 604.245,829.658 605.07,828.771 605.895,827.707 606.721,826.406 607.546,825.46 
  608.371,824.395 609.197,823.39 610.022,822.503 610.847,821.498 611.672,820.375 612.498,819.606 613.323,818.601 614.148,817.891 614.974,817.063 615.799,816.295 
  616.624,815.112 617.449,814.166 618.275,812.924 619.1,811.801 619.925,810.618 620.751,809.672 621.576,808.903 622.401,808.075 623.226,806.952 624.052,805.828 
  624.877,804.942 625.702,803.7 626.527,802.754 627.353,801.571 628.178,800.566 629.003,799.502 629.829,798.496 630.654,797.668 631.479,796.841 632.304,795.835 
  633.13,794.712 633.955,793.707 634.78,792.82 635.606,792.051 636.431,791.46 637.256,790.395 638.081,789.272 638.907,788.562 639.732,787.557 640.557,786.907 
  641.383,786.138 642.208,785.192 643.033,784.305 643.858,783.359 644.684,782.472 645.509,781.348 646.334,779.988 647.16,778.983 647.985,777.919 648.81,777.032 
  649.635,776.263 650.461,775.14 651.286,774.489 652.111,773.425 652.937,772.479 653.762,771.71 654.587,770.882 655.412,770.114 656.238,769.345 657.063,768.458 
  657.888,767.394 658.713,766.507 659.539,765.679 660.364,764.555 661.189,763.609 662.015,762.545 662.84,761.481 663.665,760.357 664.49,759.293 665.316,758.287 
  666.141,757.164 666.966,756.159 667.792,755.331 668.617,754.267 669.442,753.557 670.267,752.434 671.093,751.369 671.918,750.364 672.743,749.773 673.569,748.886 
  674.394,748.058 675.219,747.407 676.044,746.698 676.87,745.693 677.695,744.51 678.52,743.387 679.346,742.559 680.171,741.79 680.996,740.962 681.821,740.016 
  682.647,739.188 683.472,738.479 684.297,737.71 685.123,736.882 685.948,735.936 686.773,734.99 687.598,734.28 688.424,733.334 689.249,732.566 690.074,731.738 
  690.899,730.851 691.725,730.141 692.55,729.254 693.375,728.308 694.201,727.48 695.026,726.653 695.851,725.884 696.676,725.174 697.502,724.642 698.327,723.696 
  699.152,722.691 699.978,721.981 700.803,721.272 701.628,720.444 702.453,719.675 703.279,718.907 704.104,718.138 704.929,717.369 705.755,716.541 706.58,715.773 
  707.405,714.827 708.23,714.058 709.056,712.934 709.881,712.284 710.706,711.22 711.532,710.392 712.357,709.682 713.182,708.854 714.007,708.145 714.833,707.435 
  715.658,706.548 716.483,705.78 717.309,704.893 718.134,704.065 718.959,703.414 719.784,702.646 720.61,701.818 721.435,700.872 722.26,699.926 723.085,699.157 
  723.911,698.388 724.736,697.56 725.561,696.614 726.387,695.668 727.212,694.9 728.037,694.249 728.862,693.776 729.688,692.83 730.513,692.002 731.338,691.115 
  732.164,690.346 732.989,689.578 733.814,688.691 734.639,687.745 735.465,686.917 736.29,686.089 737.115,685.439 737.941,684.552 738.766,683.842 739.591,683.369 
  740.416,682.778 741.242,682.009 742.067,681.181 742.892,680.59 743.718,679.999 744.543,679.171 745.368,678.225 746.193,677.693 747.019,676.628 747.844,675.859 
  748.669,675.091 749.495,674.381 750.32,673.494 751.145,672.785 751.97,671.898 752.796,671.011 753.621,670.065 754.446,669.178 755.271,668.705 756.097,668.054 
  756.922,667.404 757.747,666.635 758.573,665.926 759.398,664.979 760.223,663.974 761.048,663.206 761.874,662.733 762.699,662.082 763.524,661.373 764.35,660.781 
  765.175,660.072 766,659.303 766.825,658.712 767.651,658.002 768.476,657.174 769.301,656.465 770.127,655.755 770.952,655.046 771.777,654.159 772.602,653.272 
  773.428,652.503 774.253,651.675 775.078,650.847 775.904,650.019 776.729,649.192 777.554,648.482 778.379,647.595 779.205,647.122 780.03,646.531 780.855,645.999 
  781.681,645.23 782.506,644.402 783.331,643.752 784.156,642.865 784.982,642.096 785.807,641.386 786.632,640.736 787.457,640.026 788.283,639.494 789.108,638.726 
  789.933,638.016 790.759,637.247 791.584,636.479 792.409,635.71 793.234,634.882 794.06,634.35 794.885,633.699 795.71,632.872 796.536,632.221 797.361,631.393 
  798.186,630.625 799.011,629.974 799.837,629.324 800.662,628.496 801.487,627.668 802.313,626.959 803.138,626.249 803.963,625.421 804.788,624.652 805.614,623.765 
  806.439,622.997 807.264,622.287 808.09,621.519 808.915,620.691 809.74,619.863 810.565,619.035 811.391,618.385 812.216,617.734 813.041,617.025 813.867,616.256 
  814.692,615.724 815.517,615.251 816.342,614.6 817.168,614.186 817.993,613.418 818.818,612.531 819.644,611.939 820.469,611.348 821.294,610.638 822.119,610.047 
  822.945,609.397 823.77,608.805 824.595,608.037 825.42,607.445 826.246,606.795 827.071,606.145 827.896,605.731 828.722,604.903 829.547,604.134 830.372,603.365 
  831.197,602.597 832.023,602.005 832.848,601.355 833.673,601 834.499,600.468 835.324,599.758 836.149,599.049 836.974,598.458 837.8,597.866 838.625,597.098 
  839.45,596.447 840.276,595.797 841.101,595.087 841.926,594.555 842.751,593.786 843.577,593.136 844.402,592.426 845.227,591.658 846.053,590.948 846.878,590.238 
  847.703,589.47 848.528,588.642 849.354,587.873 850.179,587.4 851.004,586.986 851.83,586.395 852.655,585.804 853.48,585.153 854.305,584.739 855.131,584.03 
  855.956,583.498 856.781,582.906 857.606,582.374 858.432,581.724 859.257,581.132 860.082,580.659 860.908,579.95 861.733,579.24 862.558,578.59 863.383,577.998 
  864.209,577.348 865.034,576.638 865.859,575.929 866.685,575.278 867.51,574.687 868.335,573.859 869.16,573.031 869.986,572.204 870.811,571.435 871.636,571.021 
  872.462,570.666 873.287,570.134 874.112,569.484 874.937,569.011 875.763,568.301 876.588,567.769 877.413,567.178 878.239,566.468 879.064,565.995 879.889,565.463 
  880.714,564.812 881.54,564.103 882.365,563.571 883.19,562.92 884.016,562.388 884.841,561.738 885.666,561.028 886.491,560.437 887.317,559.786 888.142,559.195 
  888.967,558.544 889.792,557.835 890.618,557.244 891.443,556.534 892.268,555.765 893.094,555.056 893.919,554.464 894.744,553.637 895.569,552.986 896.395,552.336 
  897.22,551.685 898.045,550.917 898.871,550.384 899.696,549.971 900.521,549.438 901.346,549.024 902.172,548.433 902.997,547.901 903.822,547.251 904.648,546.6 
  905.473,546.127 906.298,545.536 907.123,545.004 907.949,544.294 908.774,543.466 909.599,542.697 910.425,542.106 911.25,541.456 912.075,540.746 912.9,539.977 
  913.726,539.327 914.551,538.677 915.376,538.026 916.202,537.257 917.027,536.548 917.852,535.72 918.677,535.011 919.503,534.242 920.328,533.355 921.153,532.645 
  921.978,531.936 922.804,531.167 923.629,530.457 924.454,530.103 925.28,529.63 926.105,529.157 926.93,528.743 927.755,528.329 928.581,527.915 929.406,527.383 
  930.231,526.85 931.057,526.2 931.882,525.727 932.707,525.254 933.532,524.663 934.358,524.13 935.183,523.717 936.008,523.184 936.834,522.593 937.659,522.061 
  938.484,521.529 939.309,521.115 940.135,520.642 940.96,520.169 941.785,519.696 942.611,519.282 943.436,518.75 944.261,518.277 945.086,517.863 945.912,517.508 
  946.737,517.035 947.562,516.444 948.388,515.911 949.213,515.438 950.038,514.906 950.863,514.492 951.689,513.901 952.514,513.191 953.339,512.541 954.164,512.186 
  954.99,511.713 955.815,511.003 956.64,510.53 957.466,509.998 958.291,509.348 959.116,508.697 959.941,508.106 960.767,507.515 961.592,507.101 962.417,506.569 
  963.243,505.918 964.068,505.386 964.893,504.795 965.718,504.381 966.544,503.79 967.369,503.08 968.194,502.43 969.02,501.838 969.845,501.306 970.67,500.656 
  971.495,500.064 972.321,499.296 973.146,498.823 973.971,498.35 974.797,497.522 975.622,496.871 976.447,496.221 977.272,495.748 978.098,495.157 978.923,494.506 
  979.748,493.856 980.574,493.383 981.399,492.791 982.224,492.082 983.049,491.49 983.875,490.84 984.7,490.071 985.525,489.362 986.35,488.83 987.176,488.356 
  988.001,487.883 988.826,487.351 989.652,486.819 990.477,486.464 991.302,485.932 992.127,485.4 992.953,484.809 993.778,484.276 994.603,483.863 995.429,483.508 
  996.254,482.916 997.079,482.503 997.904,482.089 998.73,481.497 999.555,481.083 1000.38,480.61 1001.21,480.137 1002.03,479.664 1002.86,479.073 1003.68,478.541 
  1004.51,477.95 1005.33,477.476 1006.16,477.063 1006.98,476.649 1007.81,476.176 1008.63,475.88 1009.46,475.466 1010.28,474.934 1011.11,474.461 1011.93,473.929 
  1012.76,473.278 1013.58,472.687 1014.41,472.214 1015.24,471.563 1016.06,471.031 1016.89,470.499 1017.71,469.849 1018.54,469.435 1019.36,468.725 1020.19,468.311 
  1021.01,467.72 1021.84,467.306 1022.66,466.774 1023.49,466.36 1024.31,465.887 1025.14,465.414 1025.96,464.882 1026.79,464.349 1027.61,463.699 1028.44,463.108 
  1029.27,462.516 1030.09,462.043 1030.92,461.629 1031.74,461.097 1032.57,460.624 1033.39,460.092 1034.22,459.501 1035.04,459.087 1035.87,458.614 1036.69,457.963 
  1037.52,457.549 1038.34,457.017 1039.17,456.603 1039.99,456.13 1040.82,455.776 1041.64,455.243 1042.47,454.829 1043.29,454.297 1044.12,453.883 1044.95,453.469 
  1045.77,453.056 1046.6,452.582 1047.42,452.109 1048.25,451.577 1049.07,451.104 1049.9,450.572 1050.72,450.099 1051.55,449.626 1052.37,449.094 1053.2,448.562 
  1054.02,448.089 1054.85,447.556 1055.67,446.906 1056.5,446.374 1057.32,445.842 1058.15,445.25 1058.98,444.718 1059.8,444.245 1060.63,443.654 1061.45,443.181 
  1062.28,442.708 1063.1,442.176 1063.93,441.643 1064.75,441.111 1065.58,440.697 1066.4,440.224 1067.23,439.751 1068.05,439.16 1068.88,438.687 1069.7,438.273 
  1070.53,437.8 1071.35,437.327 1072.18,436.854 1073.01,436.262 1073.83,435.908 1074.66,435.494 1075.48,434.962 1076.31,434.489 1077.13,434.252 1077.96,433.956 
  1078.78,433.602 1079.61,433.306 1080.43,433.01 1081.26,432.656 1082.08,432.419 1082.91,432.123 1083.73,431.828 1084.56,431.355 1085.38,430.882 1086.21,430.349 
  1087.03,429.995 1087.86,429.462 1088.69,428.989 1089.51,428.635 1090.34,428.162 1091.16,427.689 1091.99,427.156 1092.81,426.683 1093.64,426.21 1094.46,425.737 
  1095.29,425.205 1096.11,424.732 1096.94,424.259 1097.76,423.727 1098.59,423.254 1099.41,422.722 1100.24,422.367 1101.06,421.953 1101.89,421.598 1102.72,421.125 
  1103.54,420.829 1104.37,420.415 1105.19,419.942 1106.02,419.529 1106.84,419.233 1107.67,418.76 1108.49,418.287 1109.32,417.873 1110.14,417.518 1110.97,417.104 
  1111.79,416.631 1112.62,416.158 1113.44,415.862 1114.27,415.508 1115.09,415.153 1115.92,414.68 1116.75,414.384 1117.57,413.911 1118.4,413.497 1119.22,413.083 
  1120.05,412.551 1120.87,412.137 1121.7,411.723 1122.52,411.25 1123.35,410.777 1124.17,410.363 1125,410.068 1125.82,409.595 1126.65,409.003 1127.47,408.648 
  1128.3,408.235 1129.12,407.702 1129.95,407.229 1130.77,406.697 1131.6,406.342 1132.43,405.869 1133.25,405.455 1134.08,405.042 1134.9,404.509 1135.73,403.977 
  1136.55,403.504 1137.38,403.208 1138.2,402.854 1139.03,402.322 1139.85,401.789 1140.68,401.375 1141.5,400.902 1142.33,400.429 1143.15,399.897 1143.98,399.602 
  1144.8,399.128 1145.63,398.655 1146.46,398.123 1147.28,397.591 1148.11,397 1148.93,396.468 1149.76,395.935 1150.58,395.522 1151.41,394.989 1152.23,394.516 
  1153.06,394.043 1153.88,393.57 1154.71,393.097 1155.53,392.565 1156.36,392.092 1157.18,391.678 1158.01,391.323 1158.83,390.791 1159.66,390.436 1160.49,389.963 
  1161.31,389.49 1162.14,388.958 1162.96,388.426 1163.79,387.835 1164.61,387.361 1165.44,387.007 1166.26,386.711 1167.09,386.534 1167.91,386.179 1168.74,385.942 
  1169.56,385.528 1170.39,385.292 1171.21,385.055 1172.04,384.701 1172.86,384.405 1173.69,384.168 1174.51,383.932 1175.34,383.577 1176.17,383.281 1176.99,382.986 
  1177.82,382.572 1178.64,382.158 1179.47,381.744 1180.29,381.389 1181.12,381.035 1181.94,380.739 1182.77,380.384 1183.59,379.911 1184.42,379.497 1185.24,379.201 
  1186.07,378.906 1186.89,378.492 1187.72,378.137 1188.54,377.723 1189.37,377.25 1190.2,376.955 1191.02,376.541 1191.85,376.245 1192.67,375.831 1193.5,375.476 
  1194.32,375.181 1195.15,374.944 1195.97,374.589 1196.8,374.116 1197.62,373.643 1198.45,373.288 1199.27,372.875 1200.1,372.461 1200.92,372.165 1201.75,371.869 
  1202.57,371.515 1203.4,371.101 1204.22,370.687 1205.05,370.214 1205.88,369.859 1206.7,369.504 1207.53,369.09 1208.35,368.617 1209.18,368.203 1210,367.789 
  1210.83,367.494 1211.65,367.198 1212.48,366.843 1213.3,366.429 1214.13,366.074 1214.95,365.661 1215.78,365.247 1216.6,364.892 1217.43,364.537 1218.25,364.182 
  1219.08,363.887 1219.91,363.532 1220.73,363.059 1221.56,362.645 1222.38,362.29 1223.21,361.876 1224.03,361.462 1224.86,361.167 1225.68,360.812 1226.51,360.398 
  1227.33,359.984 1228.16,359.57 1228.98,359.156 1229.81,358.801 1230.63,358.388 1231.46,358.033 1232.28,357.796 1233.11,357.382 1233.94,356.968 1234.76,356.554 
  1235.59,356.2 1236.41,355.845 1237.24,355.431 1238.06,354.958 1238.89,354.603 1239.71,354.308 1240.54,353.894 1241.36,353.539 1242.19,353.125 1243.01,352.711 
  1243.84,352.297 1244.66,351.883 1245.49,351.528 1246.31,351.174 1247.14,350.76 1247.96,350.346 1248.79,350.109 1249.62,349.636 1250.44,349.341 1251.27,348.927 
  1252.09,348.572 1252.92,348.217 1253.74,347.803 1254.57,347.33 1255.39,346.857 1256.22,346.502 1257.04,346.088 1257.87,345.793 1258.69,345.379 1259.52,344.906 
  1260.34,344.492 1261.17,344.137 1261.99,343.723 1262.82,343.368 1263.65,342.954 1264.47,342.541 1265.3,342.067 1266.12,341.654 1266.95,341.24 1267.77,340.885 
  1268.6,340.412 1269.42,339.998 1270.25,339.584 1271.07,339.17 1271.9,338.697 1272.72,338.401 1273.55,337.987 1274.37,337.514 1275.2,337.101 1276.02,336.805 
  1276.85,336.391 1277.68,335.977 1278.5,335.622 1279.33,335.208 1280.15,334.854 1280.98,334.44 1281.8,334.085 1282.63,333.671 1283.45,333.316 1284.28,332.902 
  1285.1,332.429 1285.93,332.015 1286.75,331.542 1287.58,331.069 1288.4,330.774 1289.23,330.596 1290.05,330.3 1290.88,330.064 1291.7,329.768 1292.53,329.473 
  1293.36,329.236 1294.18,329 1295.01,328.763 1295.83,328.586 1296.66,328.349 1297.48,328.113 1298.31,327.876 1299.13,327.58 1299.96,327.285 1300.78,326.989 
  1301.61,326.753 1302.43,326.398 1303.26,326.102 1304.08,325.866 1304.91,325.57 1305.73,325.274 1306.56,324.979 1307.39,324.683 1308.21,324.328 1309.04,324.033 
  1309.86,323.737 1310.69,323.441 1311.51,323.146 1312.34,322.791 1313.16,322.436 1313.99,322.081 1314.81,321.727 1315.64,321.372 1316.46,321.076 1317.29,320.78 
  1318.11,320.485 1318.94,320.189 1319.76,319.834 1320.59,319.539 1321.42,319.302 1322.24,318.947 1323.07,318.652 1323.89,318.297 1324.72,318.06 1325.54,317.824 
  1326.37,317.469 1327.19,317.233 1328.02,316.937 1328.84,316.582 1329.67,316.227 1330.49,315.873 1331.32,315.518 1332.14,315.163 1332.97,314.808 1333.79,314.454 
  1334.62,314.158 1335.44,313.862 1336.27,313.626 1337.1,313.33 1337.92,313.034 1338.75,312.739 1339.57,312.443 1340.4,312.147 1341.22,311.852 1342.05,311.556 
  1342.87,311.201 1343.7,310.847 1344.52,310.492 1345.35,310.137 1346.17,309.9 1347,309.546 1347.82,309.25 1348.65,308.895 1349.47,308.6 1350.3,308.304 
  1351.13,308.008 1351.95,307.713 1352.78,307.417 1353.6,307.121 1354.43,306.885 1355.25,306.589 1356.08,306.234 1356.9,305.939 1357.73,305.702 1358.55,305.407 
  1359.38,305.111 1360.2,304.756 1361.03,304.46 1361.85,304.106 1362.68,303.869 1363.5,303.573 1364.33,303.219 1365.16,302.864 1365.98,302.509 1366.81,302.213 
  1367.63,301.918 1368.46,301.622 1369.28,301.267 1370.11,300.972 1370.93,300.617 1371.76,300.321 1372.58,300.085 1373.41,299.73 1374.23,299.434 1375.06,299.139 
  1375.88,298.843 1376.71,298.488 1377.53,298.133 1378.36,297.838 1379.18,297.483 1380.01,297.128 1380.84,296.773 1381.66,296.478 1382.49,296.123 1383.31,295.768 
  1384.14,295.473 1384.96,295.177 1385.79,294.822 1386.61,294.527 1387.44,294.29 1388.26,293.935 1389.09,293.64 1389.91,293.285 1390.74,292.93 1391.56,292.634 
  1392.39,292.28 1393.21,291.925 1394.04,291.629 1394.87,291.393 1395.69,291.097 1396.52,290.742 1397.34,290.387 1398.17,290.033 1398.99,289.737 1399.82,289.382 
  1400.64,289.086 1401.47,288.732 1402.29,288.377 1403.12,288.022 1403.94,287.667 1404.77,287.313 1405.59,287.017 1406.42,286.721 1407.24,286.366 1408.07,286.012 
  1408.89,285.716 1409.72,285.361 1410.55,285.006 1411.37,284.711 1412.2,284.415 1413.02,284.06 1413.85,283.824 1414.67,283.528 1415.5,283.173 1416.32,282.878 
  1417.15,282.523 1417.97,282.168 1418.8,281.873 1419.62,281.518 1420.45,281.163 1421.27,280.867 1422.1,280.572 1422.92,280.276 1423.75,279.921 1424.58,279.626 
  1425.4,279.271 1426.23,278.916 1427.05,278.561 1427.88,278.266 1428.7,277.911 1429.53,277.615 1430.35,277.26 1431.18,276.965 1432,276.669 1432.83,276.314 
  1433.65,275.96 1434.48,275.605 1435.3,275.25 1436.13,274.954 1436.95,274.6 1437.78,274.245 1438.61,273.89 1439.43,273.594 1440.26,273.24 1441.08,272.885 
  1441.91,272.53 1442.73,272.234 1443.56,271.88 1444.38,271.525 1445.21,271.17 1446.03,270.815 1446.86,270.46 1447.68,270.165 1448.51,269.81 1449.33,269.514 
  1450.16,269.159 1450.98,268.805 1451.81,268.509 1452.63,268.332 1453.46,268.095 1454.29,267.977 1455.11,267.859 1455.94,267.681 1456.76,267.445 1457.59,267.208 
  1458.41,266.972 1459.24,266.853 1460.06,266.676 1460.89,266.499 1461.71,266.321 1462.54,266.085 1463.36,265.848 1464.19,265.612 1465.01,265.434 1465.84,265.375 
  1466.66,265.257 1467.49,265.02 1468.32,264.784 1469.14,264.606 1469.97,264.429 1470.79,264.193 1471.62,263.956 1472.44,263.719 1473.27,263.483 1474.09,263.246 
  1474.92,263.01 1475.74,262.833 1476.57,262.655 1477.39,262.478 1478.22,262.241 1479.04,262.005 1479.87,261.768 1480.69,261.532 1481.52,261.295 1482.35,261.059 
  1483.17,260.822 1484,260.586 1484.82,260.349 1485.65,260.113 1486.47,259.876 1487.3,259.699 1488.12,259.462 1488.95,259.226 1489.77,259.048 1490.6,258.812 
  1491.42,258.575 1492.25,258.339 1493.07,258.102 1493.9,257.866 1494.72,257.629 1495.55,257.393 1496.37,257.156 1497.2,256.979 1498.03,256.742 1498.85,256.506 
  1499.68,256.269 1500.5,256.033 1501.33,255.855 1502.15,255.619 1502.98,255.382 1503.8,255.146 1504.63,254.909 1505.45,254.732 1506.28,254.495 1507.1,254.318 
  1507.93,254.081 1508.75,253.845 1509.58,253.608 1510.4,253.372 1511.23,253.135 1512.06,252.958 1512.88,252.721 1513.71,252.485 1514.53,252.248 1515.36,252.012 
  1516.18,251.775 1517.01,251.539 1517.83,251.361 1518.66,251.125 1519.48,250.947 1520.31,250.711 1521.13,250.474 1521.96,250.238 1522.78,250.06 1523.61,249.824 
  1524.43,249.587 1525.26,249.41 1526.09,249.173 1526.91,248.937 1527.74,248.819 1528.56,248.641 1529.39,248.405 1530.21,248.168 1531.04,247.932 1531.86,247.695 
  1532.69,247.459 1533.51,247.222 1534.34,246.986 1535.16,246.749 1535.99,246.572 1536.81,246.394 1537.64,246.158 1538.46,245.921 1539.29,245.744 1540.11,245.507 
  1540.94,245.33 1541.77,245.093 1542.59,244.857 1543.42,244.62 1544.24,244.384 1545.07,244.147 1545.89,243.911 1546.72,243.674 1547.54,243.438 1548.37,243.201 
  1549.19,242.965 1550.02,242.728 1550.84,242.492 1551.67,242.255 1552.49,242.019 1553.32,241.782 1554.14,241.605 1554.97,241.368 1555.8,241.191 1556.62,240.954 
  1557.45,240.777 1558.27,240.599 1559.1,240.422 1559.92,240.186 1560.75,239.949 1561.57,239.772 1562.4,239.535 1563.22,239.299 1564.05,239.062 1564.87,238.826 
  1565.7,238.589 1566.52,238.352 1567.35,238.116 1568.17,237.879 1569,237.643 1569.82,237.406 1570.65,237.17 1571.48,236.933 1572.3,236.697 1573.13,236.46 
  1573.95,236.224 1574.78,235.987 1575.6,235.751 1576.43,235.573 1577.25,235.337 1578.08,235.1 1578.9,234.864 1579.73,234.627 1580.55,234.45 1581.38,234.272 
  1582.2,234.036 1583.03,233.859 1583.85,233.622 1584.68,233.386 1585.51,233.149 1586.33,232.912 1587.16,232.676 1587.98,232.439 1588.81,232.203 1589.63,232.026 
  1590.46,231.789 1591.28,231.612 1592.11,231.375 1592.93,231.139 1593.76,230.961 1594.58,230.725 1595.41,230.488 1596.23,230.252 1597.06,230.015 1597.88,229.838 
  1598.71,229.601 1599.54,229.424 1600.36,229.187 1601.19,229.01 1602.01,228.773 1602.84,228.537 1603.66,228.3 1604.49,228.064 1605.31,227.827 1606.14,227.65 
  1606.96,227.413 1607.79,227.177 1608.61,226.94 1609.44,226.704 1610.26,226.467 1611.09,226.231 1611.91,225.994 1612.74,225.758 1613.56,225.521 1614.39,225.344 
  1615.22,225.107 1616.04,224.871 1616.87,224.634 1617.69,224.398 1618.52,224.161 1619.34,223.925 1620.17,223.688 1620.99,223.452 1621.82,223.215 1622.64,222.979 
  1623.47,222.742 1624.29,222.505 1625.12,222.269 1625.94,222.032 1626.77,221.796 1627.59,221.559 1628.42,221.382 1629.25,221.145 1630.07,220.968 1630.9,220.732 
  1631.72,220.495 1632.55,220.259 1633.37,220.022 1634.2,219.785 1635.02,219.549 1635.85,219.312 1636.67,219.135 1637.5,218.899 1638.32,218.662 1639.15,218.425 
  1639.97,218.189 1640.8,217.952 1641.62,217.716 1642.45,217.479 1643.28,217.243 1644.1,217.006 1644.93,216.77 1645.75,216.533 1646.58,216.297 1647.4,216.06 
  1648.23,215.824 1649.05,215.587 1649.88,215.351 1650.7,215.114 1651.53,214.878 1652.35,214.641 1653.18,214.405 1654,214.168 1654.83,213.932 1655.65,213.695 
  1656.48,213.459 1657.3,213.222 1658.13,212.985 1658.96,212.749 1659.78,212.512 1660.61,212.276 1661.43,212.039 1662.26,211.862 1663.08,211.625 1663.91,211.448 
  1664.73,211.212 1665.56,210.975 1666.38,210.739 1667.21,210.502 1668.03,210.265 1668.86,210.029 1669.68,209.792 1670.51,209.556 1671.33,209.319 1672.16,209.083 
  1672.99,208.846 1673.81,208.61 1674.64,208.373 1675.46,208.137 1676.29,207.9 1677.11,207.664 1677.94,207.427 1678.76,207.191 1679.59,206.954 1680.41,206.718 
  1681.24,206.481 1682.06,206.245 1682.89,206.008 1683.71,205.772 1684.54,205.535 1685.36,205.298 1686.19,205.062 1687.02,204.825 1687.84,204.648 1688.67,204.412 
  1689.49,204.175 1690.32,203.938 1691.14,203.702 1691.97,203.525 1692.79,203.406 1693.62,203.288 1694.44,203.17 1695.27,203.052 1696.09,202.933 1696.92,202.815 
  1697.74,202.697 1698.57,202.578 1699.39,202.46 1700.22,202.342 1701.04,202.224 1701.87,202.105 1702.7,201.987 1703.52,201.869 1704.35,201.751 1705.17,201.632 
  1706,201.514 1706.82,201.396 1707.65,201.278 1708.47,201.159 1709.3,201.041 1710.12,200.923 1710.95,200.805 1711.77,200.686 1712.6,200.568 1713.42,200.45 
  1714.25,200.332 1715.07,200.213 1715.9,200.095 1716.73,199.977 1717.55,199.858 1718.38,199.74 1719.2,199.622 1720.03,199.504 1720.85,199.385 1721.68,199.267 
  1722.5,199.149 1723.33,199.031 1724.15,198.912 1724.98,198.794 1725.8,198.676 1726.63,198.558 1727.45,198.439 1728.28,198.321 1729.1,198.203 1729.93,198.085 
  1730.76,197.966 1731.58,197.848 1732.41,197.73 1733.23,197.612 1734.06,197.493 1734.88,197.375 1735.71,197.257 1736.53,197.138 1737.36,197.02 1738.18,196.902 
  1739.01,196.784 1739.83,196.665 1740.66,196.547 1741.48,196.429 1742.31,196.311 1743.13,196.192 1743.96,196.074 1744.78,195.956 1745.61,195.838 1746.44,195.719 
  1747.26,195.601 1748.09,195.483 1748.91,195.365 1749.74,195.246 1750.56,195.128 1751.39,195.01 1752.21,194.892 1753.04,194.773 1753.86,194.655 1754.69,194.537 
  1755.51,194.418 1756.34,194.3 1757.16,194.182 1757.99,194.064 1758.81,193.945 1759.64,193.827 1760.47,193.709 1761.29,193.591 1762.12,193.472 1762.94,193.354 
  1763.77,193.236 1764.59,193.118 1765.42,192.999 1766.24,192.881 1767.07,192.763 1767.89,192.645 1768.72,192.526 1769.54,192.408 1770.37,192.29 1771.19,192.172 
  1772.02,192.053 1772.84,191.935 1773.67,191.817 1774.49,191.698 1775.32,191.58 1776.15,191.462 1776.97,191.344 1777.8,191.225 1778.62,191.107 1779.45,190.989 
  1780.27,190.871 1781.1,190.752 1781.92,190.634 1782.75,190.516 1783.57,190.398 1784.4,190.279 1785.22,190.161 1786.05,190.043 1786.87,189.925 1787.7,189.806 
  1788.52,189.688 1789.35,189.57 1790.18,189.452 1791,189.333 1791.83,189.215 1792.65,189.097 1793.48,188.978 1794.3,188.86 1795.13,188.742 1795.95,188.624 
  1796.78,188.505 1797.6,188.387 1798.43,188.269 1799.25,188.151 1800.08,188.032 1800.9,187.914 1801.73,187.796 1802.55,187.678 1803.38,187.559 1804.21,187.441 
  1805.03,187.323 1805.86,187.205 1806.68,187.086 1807.51,186.968 1808.33,186.85 1809.16,186.731 1809.98,186.613 1810.81,186.495 1811.63,186.377 1812.46,186.258 
  1813.28,186.14 1814.11,186.022 1814.93,185.904 1815.76,185.785 1816.58,185.667 1817.41,185.549 1818.23,185.431 1819.06,185.312 1819.89,185.194 1820.71,185.076 
  1821.54,184.958 1822.36,184.839 1823.19,184.721 1824.01,184.603 1824.84,184.485 1825.66,184.366 1826.49,184.248 1827.31,184.13 1828.14,184.011 1828.96,183.893 
  1829.79,183.775 1830.61,183.657 1831.44,183.538 1832.26,183.42 1833.09,183.302 1833.92,183.184 1834.74,183.065 1835.57,182.947 1836.39,182.829 1837.22,182.711 
  1838.04,182.592 1838.87,182.474 1839.69,182.356 1840.52,182.238 1841.34,182.119 1842.17,182.001 1842.99,181.883 1843.82,181.765 1844.64,181.646 1845.47,181.528 
  1846.29,181.41 1847.12,181.291 1847.95,181.173 1848.77,181.055 1849.6,180.937 1850.42,180.818 1851.25,180.7 1852.07,180.582 1852.9,180.464 1853.72,180.345 
  1854.55,180.227 1855.37,180.109 1856.2,179.991 1857.02,179.872 1857.85,179.754 1858.67,179.636 1859.5,179.518 1860.32,179.399 1861.15,179.281 1861.97,179.163 
  1862.8,179.045 1863.63,178.926 1864.45,178.808 1865.28,178.69 1866.1,178.571 1866.93,178.453 1867.75,178.335 1868.58,178.217 1869.4,178.098 1870.23,177.98 
  1871.05,177.862 1871.88,177.744 1872.7,177.625 1873.53,177.507 1874.35,177.389 1875.18,177.271 1876,177.152 1876.83,177.034 1877.66,176.916 1878.48,176.798 
  1879.31,176.679 1880.13,176.561 1880.96,176.443 1881.78,176.325 1882.61,176.206 1883.43,176.088 1884.26,175.97 1885.08,175.851 1885.91,175.733 1886.73,175.615 
  1887.56,175.497 1888.38,175.378 1889.21,175.26 1890.03,175.142 1890.86,175.024 1891.69,174.905 1892.51,174.787 1893.34,174.669 1894.16,174.551 1894.99,174.432 
  1895.81,174.314 1896.64,174.196 1897.46,174.078 1898.29,173.959 1899.11,173.841 1899.94,173.723 1900.76,173.605 1901.59,173.486 1902.41,173.368 1903.24,173.25 
  1904.06,173.131 1904.89,173.013 1905.71,172.895 1906.54,172.777 1907.37,172.658 1908.19,172.54 1909.02,172.422 1909.84,172.304 1910.67,172.185 1911.49,172.067 
  1912.32,171.949 1913.14,171.831 1913.97,171.712 1914.79,171.594 1915.62,171.476 1916.44,171.358 1917.27,171.239 1918.09,171.121 1918.92,171.003 1919.74,170.885 
  1920.57,170.766 1921.4,170.648 1922.22,170.53 1923.05,170.411 1923.87,170.293 1924.7,170.175 1925.52,170.057 1926.35,169.938 1927.17,169.82 1928,169.702 
  1928.82,169.584 1929.65,169.465 1930.47,169.347 1931.3,169.229 1932.12,169.111 1932.95,168.992 1933.77,168.874 1934.6,168.756 1935.42,168.638 1936.25,168.519 
  1937.08,168.401 1937.9,168.283 1938.73,168.165 1939.55,168.046 1940.38,167.928 1941.2,167.81 1942.03,167.691 1942.85,167.573 1943.68,167.455 1944.5,167.337 
  1945.33,167.218 1946.15,167.1 1946.98,166.982 1947.8,166.864 1948.63,166.745 1949.45,166.627 1950.28,166.509 1951.11,166.391 1951.93,166.331 
  "/>
<path clip-path="url(#clip5100)" d="
M1484.05 1655.51 L1892.76 1655.51 L1892.76 1474.07 L1484.05 1474.07  Z
  " fill="#ffffff" fill-rule="evenodd" fill-opacity="1"/>
<polyline clip-path="url(#clip5100)" style="stroke:#000000; stroke-width:4; stroke-opacity:1; fill:none" points="
  1484.05,1655.51 1892.76,1655.51 1892.76,1474.07 1484.05,1474.07 1484.05,1655.51 
  "/>
<polyline clip-path="url(#clip5100)" style="stroke:#009af9; stroke-width:4; stroke-opacity:1; fill:none" points="
  1504.05,1534.55 1624.05,1534.55 
  "/>
<g clip-path="url(#clip5100)">
<text style="fill:#000000; fill-opacity:1; font-family:Arial,Helvetica Neue,Helvetica,sans-serif; font-size:48px; text-anchor:start;" transform="rotate(0, 1644.05, 1552.05)" x="1644.05" y="1552.05">genome</text>
</g>
<polyline clip-path="url(#clip5100)" style="stroke:#e26f46; stroke-width:4; stroke-opacity:1; fill:none" points="
  1504.05,1595.03 1624.05,1595.03 
  "/>
<g clip-path="url(#clip5100)">
<text style="fill:#000000; fill-opacity:1; font-family:Arial,Helvetica Neue,Helvetica,sans-serif; font-size:48px; text-anchor:start;" transform="rotate(0, 1644.05, 1612.53)" x="1644.05" y="1612.53">haplotype</text>
</g>
</svg>
